<?xml version="1.0" encoding="UTF-8"?>
<svg version="1.1" xmlns="http://www.w3.org/2000/svg" width="408" height="354">
<path d="M0 0 C0.84360077 0.00215515 1.68720154 0.0043103 2.55636597 0.00653076 C14.71183251 0.05642804 26.53221681 0.31402501 38.375 3.3125 C39.21724121 3.52181152 40.05948242 3.73112305 40.92724609 3.94677734 C64.61099126 9.97761748 86.77972304 19.56887346 106.375 34.3125 C107.21933594 34.94542969 108.06367188 35.57835937 108.93359375 36.23046875 C113.9583312 40.12966501 118.68747981 44.33176324 123.375 48.625 C123.93960937 49.14102783 124.50421875 49.65705566 125.0859375 50.1887207 C131.12740481 55.79825994 131.12740481 55.79825994 131.74609375 59.58203125 C131.94774811 67.30420712 131.94774811 67.30420712 129.375 70.8125 C125.92227578 73.68977018 122.9443127 75.44689155 118.375 75.3125 C112.926697 73.49430189 109.42691844 70.87285318 105.375 66.8125 C86.68008639 48.85196066 64.26957815 37.15654982 39.375 30.3125 C38.30121094 30.01601563 37.22742188 29.71953125 36.12109375 29.4140625 C-3.55363652 19.3836551 -43.60084105 27.55539151 -78.88671875 47.12109375 C-81.56063909 48.74886716 -84.09347465 50.47139065 -86.625 52.3125 C-87.68203125 53.075625 -88.7390625 53.83875 -89.828125 54.625 C-117.84035207 75.45225981 -137.58733786 104.56907919 -146.625 138.3125 C-146.90085938 139.31152344 -147.17671875 140.31054688 -147.4609375 141.33984375 C-156.14153327 175.41762812 -151.69279549 211.7826602 -136.625 243.3125 C-136.30128418 243.99038574 -135.97756836 244.66827148 -135.64404297 245.36669922 C-128.9407289 259.13797128 -120.22720796 271.26482111 -109.625 282.3125 C-108.39716797 283.63507813 -108.39716797 283.63507813 -107.14453125 284.984375 C-88.3648177 304.62401635 -64.31227029 316.40872452 -38.625 324.3125 C-38.625 300.2225 -38.625 276.1325 -38.625 251.3125 C-39.945 250.6525 -41.265 249.9925 -42.625 249.3125 C-44.09327909 247.99392169 -45.51131623 246.6184134 -46.890625 245.20703125 C-47.69886719 244.38783203 -48.50710937 243.56863281 -49.33984375 242.72460938 C-50.17644531 241.86673828 -51.01304688 241.00886719 -51.875 240.125 C-62.19262275 229.36714217 -62.19262275 229.36714217 -74.125 220.5625 C-79.64695285 216.81869145 -84.42236122 212.80089479 -86.625 206.3125 C-89.3829424 191.08627593 -87.67628916 174.65890985 -86.625 159.3125 C-87.41124756 159.16772217 -88.19749512 159.02294434 -89.00756836 158.8737793 C-94.21138178 157.757879 -97.71019721 154.47454678 -100.9375 150.375 C-104.4097689 144.07347497 -105.4953388 138.44712915 -104.625 131.3125 C-102.1427381 122.83255665 -97.16104213 117.80205701 -89.625 113.3125 C-82.78997692 111.16312167 -75.73363428 111.40921573 -69.25 114.4375 C-63.45002515 117.70975206 -59.56435255 121.85027917 -57.13671875 128.20703125 C-55.21549904 136.11189706 -56.12788428 143.14837157 -60.13671875 150.18359375 C-63.72539342 155.31699977 -67.66197126 157.4547553 -73.625 159.3125 C-73.85550169 165.03925489 -73.98303601 170.7565256 -74.02172852 176.48779297 C-74.04857088 178.42976559 -74.10192913 180.37158158 -74.18383789 182.31201172 C-74.84839916 194.75270702 -74.84839916 194.75270702 -69.47802734 205.51367188 C-66.35018467 208.60818547 -62.96323237 211.30761724 -59.43508911 213.92987061 C-57.07852918 215.72991957 -55.03671095 217.75447536 -52.984375 219.890625 C-52.36949219 220.51324219 -51.75460938 221.13585937 -51.12109375 221.77734375 C-50.54488281 222.36644531 -49.96867187 222.95554688 -49.375 223.5625 C-48.14298388 224.82002371 -46.90870513 226.07533578 -45.671875 227.328125 C-44.89602051 228.12138184 -44.89602051 228.12138184 -44.10449219 228.93066406 C-42.46657475 230.53551736 -42.46657475 230.53551736 -39.625 232.3125 C-39.62952431 231.4935022 -39.62952431 231.4935022 -39.63414001 230.65795898 C-39.65880763 224.94664494 -39.63443372 219.23699691 -39.58227539 213.52587891 C-39.56918019 211.39798941 -39.56836043 209.26998601 -39.58032227 207.14208984 C-39.59540317 204.07276612 -39.56554435 201.0065683 -39.52734375 197.9375 C-39.54159897 196.99447021 -39.55585419 196.05144043 -39.57054138 195.07983398 C-39.43249066 188.70332446 -37.89607599 185.50140802 -33.38850403 180.98040771 C-32.8065477 180.42999817 -32.22459137 179.87958862 -31.625 179.3125 C-30.71562071 178.32532431 -29.81381923 177.33108165 -28.921875 176.328125 C-28.08140625 175.41546875 -27.2409375 174.5028125 -26.375 173.5625 C-25.91609375 173.06298828 -25.4571875 172.56347656 -24.984375 172.04882812 C-22.52011348 169.36693482 -20.05021908 166.69029785 -17.578125 164.015625 C-17.08344727 163.47905273 -16.58876953 162.94248047 -16.07910156 162.38964844 C-14.70000694 160.89385407 -13.31881328 159.39999576 -11.9375 157.90625 C-11.174375 157.0503125 -10.41125 156.194375 -9.625 155.3125 C-9.09285889 154.80106445 -8.56071777 154.28962891 -8.01245117 153.76269531 C-5.80551022 149.86530672 -6.1438829 145.92120167 -6.11328125 141.515625 C-6.09533005 140.56685486 -6.07737885 139.61808472 -6.05888367 138.64056396 C-6.00476494 135.61458765 -5.97087974 132.58876922 -5.9375 129.5625 C-5.90432833 127.50909261 -5.86983881 125.45570605 -5.83398438 123.40234375 C-5.74903743 118.37250972 -5.68223349 113.34272264 -5.625 108.3125 C-6.56972168 108.01085937 -7.51444336 107.70921875 -8.48779297 107.3984375 C-14.00930727 105.48717714 -18.07883426 101.96862272 -21.0234375 96.91015625 C-24.43011607 89.06996338 -24.59943619 82.4592746 -21.5859375 74.4140625 C-18.74472248 68.20034835 -14.60179946 65.04097915 -8.5078125 62.23046875 C-1.9559489 60.14417072 5.37411369 60.05702975 11.75 62.8125 C17.64028491 66.31921623 22.30855237 71.77359999 24.375 78.3125 C25.44221728 86.88393984 24.66510089 94.30121796 19.375 101.3125 C16.01407348 104.51649609 12.78865846 106.84128051 8.375 108.3125 C8.37135437 108.88799591 8.36770874 109.46349182 8.36395264 110.056427 C8.32206485 116.05918414 8.25267547 122.06118115 8.16748047 128.06347656 C8.13929638 130.30200591 8.11806914 132.5406343 8.10400391 134.77929688 C8.08253952 138.00181694 8.0358694 141.22314938 7.984375 144.4453125 C7.98314636 145.44241241 7.98191772 146.43951233 7.98065186 147.46682739 C7.8588919 153.27442912 7.27566337 156.72467086 3.375 161.3125 C2.8178833 161.96959961 2.2607666 162.62669922 1.68676758 163.30371094 C1.13657959 163.87895508 0.5863916 164.45419922 0.01953125 165.046875 C-0.59881592 165.69873779 -1.21716309 166.35060059 -1.85424805 167.0222168 C-2.82358276 168.03215698 -2.82358276 168.03215698 -3.8125 169.0625 C-5.15695754 170.47979791 -6.50070936 171.8977656 -7.84375 173.31640625 C-8.49214844 173.99977051 -9.14054688 174.68313477 -9.80859375 175.38720703 C-13.49175805 179.29116317 -17.10919511 183.25695534 -20.625 187.3125 C-21.31208164 188.06219653 -21.99916328 188.81189306 -22.70706558 189.58430767 C-24.9286273 192.74439885 -25.1298857 194.26030255 -25.14398193 198.07685852 C-25.15789474 199.22805679 -25.17180756 200.37925507 -25.18614197 201.56533813 C-25.17859642 203.44592422 -25.17859642 203.44592422 -25.17089844 205.36450195 C-25.17963747 206.70513608 -25.19012441 208.04575979 -25.20222473 209.3863678 C-25.23006562 213.01827043 -25.23348986 216.64983241 -25.23250484 220.28182626 C-25.23563563 224.08022949 -25.26125723 227.87847967 -25.28448486 231.67680359 C-25.32503586 238.86607642 -25.34538341 246.05525856 -25.35845876 253.24462813 C-25.37433189 261.43088487 -25.41274879 269.61698735 -25.45305204 277.80315459 C-25.53543863 294.6395587 -25.58953843 311.47593028 -25.625 328.3125 C-22.78021572 328.47914073 -19.93532695 328.64342469 -17.09033203 328.80639648 C-16.29419998 328.85327354 -15.49806793 328.9001506 -14.67781067 328.94844818 C-7.61109384 329.35017398 -0.57842193 329.42899363 6.5 329.375 C10.41875 329.354375 14.3375 329.33375 18.375 329.3125 C18.375 313.4725 18.375 297.6325 18.375 281.3125 C16.725 280.9825 15.075 280.6525 13.375 280.3125 C7.457869 276.28104811 2.84429837 271.45456773 1.375 264.3125 C0.74985512 256.57032104 0.98542401 249.66552136 5.88671875 243.37109375 C11.20688966 237.64443787 17.1940417 234.86726034 24.984375 234.2578125 C32.42300467 234.42797723 38.36820319 237.16523507 43.6796875 242.3046875 C48.51436817 248.03055355 50.13280728 254.10168667 49.8203125 261.5390625 C48.63553753 268.91792413 44.95591629 274.50156792 39.21875 279.15625 C37.375 280.3125 37.375 280.3125 32.375 282.3125 C32.375 296.8325 32.375 311.3525 32.375 326.3125 C66.44080863 316.09275741 94.67643248 302.33090926 117.96875 274.87109375 C120.99287199 271.51935855 123.37207825 270.44014459 127.8125 269.875 C132.86601414 270.495607 135.83440669 272.77190669 139.375 276.3125 C139.89453125 278.265625 139.89453125 278.265625 140.1875 280.5625 C140.29707031 281.31015625 140.40664063 282.0578125 140.51953125 282.828125 C140.1625335 288.96462686 135.98431943 293.24296464 131.9375 297.5 C131.40817871 298.06243408 130.87885742 298.62486816 130.33349609 299.2043457 C105.1665748 325.64115752 73.72101889 342.57114564 38.375 351.3125 C37.61558105 351.50602051 36.85616211 351.69954102 36.07373047 351.89892578 C12.16274982 357.69535939 -16.97451665 356.35901511 -40.625 350.3125 C-42.15218666 349.95765655 -43.67952899 349.60348242 -45.20703125 349.25 C-72.30514979 342.647219 -100.72653804 328.14080024 -120.11499023 307.84008789 C-121.80005808 306.08007444 -121.80005808 306.08007444 -124.625 303.875 C-149.46876569 282.65428348 -165.32649957 248.8832823 -172.8125 217.6875 C-173.0448938 216.72179077 -173.0448938 216.72179077 -173.28198242 215.73657227 C-173.76974203 213.60152872 -174.20617834 211.46216856 -174.625 209.3125 C-174.80522705 208.40097168 -174.9854541 207.48944336 -175.17114258 206.55029297 C-176.87336708 196.92282085 -176.9821673 187.43106288 -176.9375 177.6875 C-176.93534485 176.84389923 -176.9331897 176.00029846 -176.93096924 175.13113403 C-176.88104269 162.96853575 -176.60227187 151.16541255 -173.625 139.3125 C-173.42632324 138.49152832 -173.22764648 137.67055664 -173.02294922 136.82470703 C-165.82518135 107.74788146 -152.08133995 77.7912146 -130.15478516 56.8269043 C-128.39339612 55.13770743 -128.39339612 55.13770743 -126.1875 52.3125 C-104.96678348 27.46873431 -71.1957823 11.61100043 -40 4.125 C-39.03429077 3.8926062 -39.03429077 3.8926062 -38.04907227 3.65551758 C-35.91402872 3.16775797 -33.77466856 2.73132166 -31.625 2.3125 C-30.71347168 2.13227295 -29.80194336 1.9520459 -28.86279297 1.76635742 C-19.23532085 0.06413292 -9.74356288 -0.0446673 0 0 Z M-8.27734375 77.65234375 C-10.7898687 80.74748318 -10.84968817 84.43993332 -10.625 88.3125 C-8.60621428 92.42484128 -6.86653376 94.64229898 -2.625 96.3125 C1.1836365 96.63953855 4.90161332 96.40800633 8.03515625 94.078125 C10.66937012 91.09831456 12.375 88.29612864 12.375 84.3125 C10.90329361 79.81992259 9.65067118 76.57609062 5.375 74.3125 C0.26321405 72.37831072 -4.1418026 74.29893804 -8.27734375 77.65234375 Z M-89.625 129.3125 C-91.91353994 132.58184278 -92.09662218 135.3823152 -91.625 139.3125 C-89.58506092 142.9703218 -88.12080738 144.98196174 -84.625 147.3125 C-79.49564286 147.96609237 -79.49564286 147.96609237 -74.8046875 146.26171875 C-70.99347332 143.14094193 -69.73807212 141.4432212 -69.25 136.5625 C-69.27441225 133.21191932 -69.86898646 131.46355468 -72 128.875 C-75.28588455 125.6673508 -75.82832644 125.37780111 -80.4375 125 C-84.65188253 125.05354025 -86.68379458 126.19828249 -89.625 129.3125 Z M16.375 251.3125 C13.68726023 255.34410965 13.70084067 258.57673878 14.375 263.3125 C16.16773598 266.43318856 17.61759405 267.86215052 20.6875 269.6875 C24.32507329 270.53344728 26.76539015 270.27935978 30.375 269.3125 C32.95797781 267.12258403 34.85915844 265.34418312 36.375 262.3125 C36.7494411 257.35115547 36.61398133 254.19927759 33.375 250.3125 C26.51505854 245.98775429 22.72100881 246.37671537 16.375 251.3125 Z " fill="#367AE4" transform="translate(176.625,-0.3125)"/>
<path d="M0 0 C3.9537151 2.24164764 7.39695387 4.84345475 10.9375 7.6875 C20.92598448 15.478432 30.96019426 21.24652977 43.33203125 24.30859375 C46 25 46 25 47 26 C48.30158956 51.33093534 45.8604784 80.18736159 28.75 100.25 C24.29208653 104.96137343 19.51581534 108.61324006 14 112 C13.04222656 112.59296875 12.08445312 113.1859375 11.09765625 113.796875 C3.84105521 118.04369118 3.84105521 118.04369118 0.59375 117.875 C-14.90287799 112.64722188 -28.23454545 100.43370591 -35.72143555 86.08666992 C-43.33236798 70.61597424 -46.21584923 53.10433773 -46.0625 36 C-46.05798828 35.03449219 -46.05347656 34.06898438 -46.04882812 33.07421875 C-46.03715417 30.71607911 -46.02078021 28.35807398 -46 26 C-44.36804688 25.56300781 -44.36804688 25.56300781 -42.703125 25.1171875 C-28.8809864 21.31321879 -18.02695707 16.69668515 -7.69140625 6.5859375 C-5.2292207 4.22023818 -2.69936419 2.08698574 0 0 Z " fill="#367AE5" transform="translate(259,118)"/>
<path d="M0 0 C1.24067607 0.65107737 2.47363802 1.31702769 3.69921875 1.99609375 C4.35220947 2.35179443 5.0052002 2.70749512 5.67797852 3.07397461 C11.42317704 6.29012528 16.42535856 10.11012273 21.38671875 14.43359375 C22.04671875 14.93890625 22.70671875 15.44421875 23.38671875 15.96484375 C37.85171848 27.39685967 46.93265235 45.97618656 51.38671875 63.43359375 C51.65162109 64.38951416 51.65162109 64.38951416 51.921875 65.36474609 C58.17599874 89.8730935 52.030876 115.64988126 39.8190918 137.13989258 C35.63455104 144.07896028 30.14814105 149.78653233 24.38671875 155.43359375 C23.60039062 156.20703125 22.8140625 156.98046875 22.00390625 157.77734375 C14.09923483 165.14370421 1.74028967 175.18677699 -9.61328125 175.43359375 C-13.58800188 173.90485504 -15.2318179 173.00578878 -17.61328125 169.43359375 C-18.24442879 163.84342982 -18.24442879 163.84342982 -17.61328125 161.43359375 C-14.16294084 157.24389469 -10.23413013 154.9955583 -5.42578125 152.68359375 C1.50524087 149.15657471 6.93427473 145.02704925 12.38671875 139.43359375 C13.53914063 138.32951172 13.53914063 138.32951172 14.71484375 137.203125 C27.36848297 124.35580763 34.13413145 105.31939214 34.41845703 87.4375 C34.12388082 65.89726034 26.15124954 46.04904973 10.7109375 30.7890625 C4.53083492 25.34488553 -1.97343988 21.24862336 -9.26977539 17.47583008 C-12.8761398 15.58448635 -15.6374102 14.07297389 -17.61328125 10.43359375 C-18.14889187 6.22522459 -18.08102243 4.17552803 -15.80078125 0.55859375 C-10.95554628 -4.14820593 -5.72234827 -2.48071531 0 0 Z " fill="#3679E4" transform="translate(354.61328125,91.56640625)"/>
<path d="M0 0 C14.16169284 7.4323778 21.87983384 18.4223331 27.171875 33.29296875 C30.40625021 47.77137476 28.43225517 62.31438691 21.25 75.1875 C14.52067766 85.65906394 5.96904181 93.86207602 -6 98 C-10.48545043 98.80704127 -13.19749056 98.55172524 -17 95.9375 C-19.48980198 92.28060335 -19.55310065 90.34579086 -19 86 C-17.99044046 82.71893151 -16.97716744 81.98590363 -13.98828125 80.140625 C-12.76574567 79.50514693 -11.5403302 78.87518688 -10.3125 78.25 C-0.54498674 72.94011045 4.7303991 66.77562016 8 56 C10.19630042 46.13875852 8.40569571 37.45184583 3.66796875 28.4765625 C-0.6702643 22.21632746 -6.65999729 18.67075026 -13.0859375 14.84765625 C-16 13 -16 13 -17 11 C-17.69948799 3.88853879 -17.69948799 3.88853879 -14.6875 0.0625 C-9.21644569 -4.1362161 -5.86165604 -2.55621091 0 0 Z " fill="#3679E4" transform="translate(342,130)"/>
</svg>
