<?xml version="1.0" encoding="UTF-8"?>
<svg version="1.1" xmlns="http://www.w3.org/2000/svg" width="1510" height="374">
<path d="M0 0 C3.67297369 3.58949701 6.70916571 7.55808301 9.75 11.6875 C13.59915788 10.33379972 16.37108722 8.58547514 19.5625 6.0625 C37.0253667 -6.86425193 58.02924721 -13.86190074 79.78125 -10.81640625 C93.02011849 -8.43502442 101.67560647 -4.30952677 109.75 6.6875 C116.47430493 17.5454428 116.03461848 30.88231233 115.94189453 43.21142578 C115.93808692 44.73389477 115.935283 46.25636654 115.93339539 47.77883911 C115.92799059 51.03298794 115.91706039 54.28705326 115.90213394 57.54117203 C115.88003325 62.69487046 115.87976793 67.8484308 115.88400269 73.00216675 C115.8851957 74.77344702 115.88636472 76.54472731 115.8875103 78.31600761 C115.88809055 79.20235634 115.8886708 80.08870506 115.88926864 81.00191283 C115.89527554 92.98202817 115.8828229 104.96189271 115.82910156 116.94189453 C115.79291819 125.04992008 115.78524869 133.15744182 115.80959976 141.26551807 C115.82125175 145.54623869 115.81835106 149.82582935 115.78009415 154.10641861 C115.74423154 158.13061102 115.74582336 162.15309103 115.77532387 166.17731857 C115.77952305 167.64703245 115.77023582 169.11686167 115.74589729 170.58638 C115.60457171 179.67493915 116.5468022 185.05846374 122.9363842 191.74369621 C125.8010254 194.81397186 125.90720131 197.59527406 125.9375 201.625 C125.95167969 202.47964844 125.96585938 203.33429688 125.98046875 204.21484375 C125.73357294 206.86374285 125.17413681 208.45385385 123.75 210.6875 C120.94830623 212.08834688 118.60192624 211.84585352 115.46777344 211.88037109 C114.50155815 211.89263733 114.50155815 211.89263733 113.51582336 211.90515137 C111.38035001 211.92999777 109.2449432 211.94652122 107.109375 211.9609375 C106.01458706 211.96892302 106.01458706 211.96892302 104.89768219 211.97706985 C101.03287303 212.003801 97.16809613 212.02317402 93.30322266 212.03759766 C90.10794382 212.05092724 86.91330509 212.07876008 83.71826172 212.11962891 C79.85794227 212.16900716 75.99820265 212.1937251 72.13758087 212.20082474 C70.66878177 212.20752852 69.19999516 212.22272817 67.73137665 212.24671555 C54.79479012 212.4459186 54.79479012 212.4459186 50.94238281 209.35791016 C42.4427836 199.00505758 42.45269965 188.06376269 42.46289062 175.2253418 C42.4568576 173.67387028 42.44993113 172.12240202 42.44218445 170.57093811 C42.42736366 167.24636064 42.41856362 163.92184253 42.41447449 160.59723473 C42.40773301 155.34038224 42.38594916 150.08365658 42.36193848 144.82685852 C42.3089409 132.72707865 42.27540883 120.62725987 42.24217987 108.52741241 C42.2114918 97.41990875 42.17669373 86.31246004 42.12586927 75.20502788 C42.10252153 69.97847864 42.08878046 64.75201871 42.08237457 59.52542245 C42.0764426 56.2791511 42.06235319 53.03295252 42.04603004 49.78671837 C42.04014788 48.28065942 42.03768311 46.7745827 42.03886986 45.26851273 C42.04002727 43.21426895 42.0290274 41.16043506 42.01501465 39.10624695 C42.01061497 37.38159226 42.01061497 37.38159226 42.0061264 35.62209606 C41.75394569 32.73270821 41.35326532 31.07987153 39.75 28.6875 C34.19434177 25.63237446 27.89542223 26.0803619 21.75 26.6875 C18.01865197 27.79435247 14.81236228 29.0136098 12.67285538 32.3846817 C11.50060008 35.30983229 11.49821355 37.64606775 11.49603271 40.79821777 C11.49039307 42.05164474 11.48475342 43.30507172 11.47894287 44.59648132 C11.48283136 45.98294125 11.48692769 47.36940061 11.49121094 48.75585938 C11.48850049 50.21792271 11.48493925 51.67998468 11.48059082 53.14204407 C11.47147098 57.1109915 11.4750094 61.079835 11.48134899 65.04878426 C11.48641107 69.20159308 11.48171696 73.35439298 11.47857666 77.50720215 C11.47493763 84.48121743 11.47973447 91.45519036 11.48925781 98.42919922 C11.50014225 106.49309416 11.49661663 114.55688797 11.485605 122.62078047 C11.47653035 129.54316813 11.47524772 136.46552535 11.48048234 143.38791704 C11.48360106 147.52284433 11.48401407 151.65772408 11.47740936 155.79264832 C11.47163394 159.6799563 11.47563637 163.56713383 11.48719788 167.45442772 C11.48984341 168.88147452 11.48908117 170.30853228 11.48467255 171.73557472 C11.47921177 173.68263991 11.48727218 175.62972908 11.49603271 177.57678223 C11.49678677 178.66667702 11.49754082 179.75657181 11.49831772 180.87949371 C11.75077484 183.69614486 12.22714038 185.32858927 13.75 187.6875 C14.9346576 188.49424646 16.14531468 189.26370694 17.375 190 C20.30688325 192.35772278 20.72134881 193.5032569 21.3125 197.3046875 C21.66939674 207.32086104 21.66939674 207.32086104 19.61979675 210.36749268 C16.86592361 212.31162522 14.64340206 212.11262112 11.29418945 212.17089844 C10.64335892 212.18579315 9.99252838 212.20068787 9.32197571 212.21603394 C7.16898044 212.2598401 5.01664894 212.28029614 2.86328125 212.296875 C1.3621571 212.31414024 -0.13896697 212.33141331 -1.64009094 212.34869385 C-4.78995842 212.38021098 -7.93959666 212.39774486 -11.08959961 212.40820312 C-15.11110517 212.42461867 -19.12954238 212.49660053 -23.15008831 212.58211899 C-26.25328644 212.63823289 -29.35575873 212.65362685 -32.45942116 212.65821075 C-33.94062819 212.6672471 -35.4218268 212.69118924 -36.90253258 212.7307663 C-48.29681085 213.01346727 -48.29681085 213.01346727 -52.88516235 209.89855957 C-61.51548364 200.77304286 -61.68989452 191.04282462 -61.65063477 179.17114258 C-61.65638361 177.60173522 -61.66346897 176.03233227 -61.67178345 174.4629364 C-61.68684627 171.09629532 -61.6926752 167.7298123 -61.69125557 164.3631382 C-61.68921596 159.03885261 -61.70882687 153.71477866 -61.73143005 148.39054871 C-61.77233456 138.05420683 -61.79099814 127.71788191 -61.80760193 117.38147736 C-61.82998538 104.21355928 -61.86348778 91.0456903 -61.91480106 77.87785262 C-61.93471492 72.58550419 -61.9443021 67.29326718 -61.94575322 62.00088274 C-61.94850353 58.7108668 -61.95933302 55.42091246 -61.97226334 52.13092232 C-61.97654236 50.60592978 -61.97740346 49.08092322 -61.97458839 47.55592728 C-61.97118532 45.47352869 -61.97997492 43.39151864 -61.99171448 41.30915833 C-61.99416593 39.56181507 -61.99416593 39.56181507 -61.99666691 37.77917194 C-62.25398499 34.63886732 -62.80232697 32.47567276 -64.25 29.6875 C-67.65115016 27.19885354 -70.31231159 26.44689476 -74.4375 26.75 C-78.1621571 27.34818101 -81.51979587 28.42761161 -85.05078125 29.74609375 C-86.02829346 30.10888428 -87.00580566 30.4716748 -88.01293945 30.84545898 C-88.75116943 31.12333252 -89.48939941 31.40120605 -90.25 31.6875 C-90.36677923 51.54980174 -90.45496164 71.41203386 -90.50906086 91.27460766 C-90.53484728 100.49707194 -90.57000609 109.71932298 -90.62719727 118.94165039 C-90.67701893 126.97944016 -90.70928783 135.0170755 -90.72044247 143.05501539 C-90.72696338 147.31149589 -90.74229804 151.56753457 -90.77865028 155.82387352 C-90.8125905 159.83026048 -90.82305716 163.83602367 -90.81553841 167.84254074 C-90.81691386 169.31273984 -90.82685881 170.78295981 -90.84602737 172.25303459 C-90.87092662 174.26112137 -90.86193761 176.26954291 -90.85127258 178.27775574 C-90.85588155 179.40142138 -90.86049051 180.52508703 -90.86523914 181.68280315 C-89.89793376 186.40691649 -86.83101162 188.58957526 -83 191.25 C-80.82977135 193.03268782 -80.75050073 193.96633098 -80.25 196.6875 C-79.86839547 201.64835886 -79.7483486 206.24011973 -82.25 210.6875 C-85.48842275 212.30671138 -89.04071956 211.84378336 -92.59936523 211.84863281 C-93.46290619 211.85359772 -94.32644714 211.85856262 -95.21615601 211.86367798 C-98.08030994 211.8783149 -100.94440852 211.88510359 -103.80859375 211.890625 C-105.79395042 211.8963745 -107.77930707 211.90213226 -109.7646637 211.90789795 C-113.93010721 211.91841182 -118.0955314 211.92425219 -122.26098633 211.92773438 C-127.60568652 211.93322467 -132.95013267 211.95726251 -138.29475307 211.98570633 C-142.39619195 212.00430249 -146.49756922 212.00953666 -150.59904671 212.01107025 C-152.5698797 212.01410337 -154.54071144 212.02215395 -156.51150322 212.03525543 C-159.26494741 212.05225541 -162.01776529 212.05045077 -164.77124023 212.04394531 C-165.58952805 212.0531601 -166.40781586 212.06237488 -167.25090027 212.0718689 C-172.81645536 212.03054681 -172.81645536 212.03054681 -174.94918919 210.3429985 C-177.52543429 207.06429736 -176.88466373 202.98211298 -176.8046875 198.9921875 C-175.78316543 192.90621798 -171.78341554 189.72665087 -167.16204929 186.0069046 C-164.5765073 182.87052207 -164.74460334 180.92995101 -164.7353363 176.89343262 C-164.72839078 176.21088394 -164.72144525 175.52833526 -164.71428925 174.82510328 C-164.69599693 172.53866847 -164.70628882 170.25326866 -164.71655273 167.96679688 C-164.70949538 166.32738976 -164.70075114 164.68798916 -164.69044495 163.04859924 C-164.66792165 158.59612364 -164.67089728 154.144003 -164.67976642 149.69149208 C-164.68487194 145.97607805 -164.67758738 142.26073098 -164.67029434 138.54532385 C-164.65328636 129.78194687 -164.65687064 121.01874398 -164.67358398 112.25537109 C-164.6905123 103.20976401 -164.67466315 94.16463925 -164.6423611 85.11908484 C-164.61568714 77.35591224 -164.60838307 69.59288998 -164.61687618 61.82967615 C-164.62181111 57.19163464 -164.61955925 52.55388349 -164.59908867 47.9158783 C-164.58076547 43.55560727 -164.58664851 39.19603165 -164.61128807 34.83579826 C-164.61630645 33.23459663 -164.61277955 31.63334231 -164.60013962 30.03218269 C-164.58425845 27.84783969 -164.59910807 25.66580068 -164.62181091 23.48156738 C-164.62239722 22.2589344 -164.62298353 21.03630142 -164.62358761 19.77661896 C-164.98530181 16.51353372 -164.98530181 16.51353372 -167.61738682 14.36052704 C-169.38420372 13.23771399 -171.17987392 12.15916254 -173 11.125 C-175.25 9.6875 -175.25 9.6875 -176.25 6.6875 C-176.39359334 4.87877624 -176.47046121 3.06417423 -176.5 1.25 C-176.52578125 0.30253906 -176.5515625 -0.64492187 -176.578125 -1.62109375 C-176.19556366 -4.75900763 -175.44071912 -6.06547736 -173.25 -8.3125 C-169.75056762 -9.47897746 -166.98125789 -9.45385363 -163.28759766 -9.47363281 C-162.23097176 -9.48108017 -162.23097176 -9.48108017 -161.15299988 -9.48867798 C-158.82334414 -9.5032794 -156.49375648 -9.51009802 -154.1640625 -9.515625 C-152.54365029 -9.52137789 -150.9232381 -9.52713561 -149.30282593 -9.53289795 C-145.90500573 -9.54340203 -142.50720915 -9.54924865 -139.109375 -9.55273438 C-134.75920453 -9.55821945 -130.409347 -9.58225007 -126.05927467 -9.61070633 C-122.71179293 -9.62934528 -119.3643864 -9.63453896 -116.01685715 -9.63607025 C-114.41330631 -9.63909422 -112.80975671 -9.64711415 -111.20625687 -9.66025543 C-108.96099385 -9.6773435 -106.71649337 -9.67542941 -104.47119141 -9.66894531 C-103.19450592 -9.67259094 -101.91782043 -9.67623657 -100.60244751 -9.67999268 C-96.99936984 -9.28502612 -95.11666603 -8.4887611 -92.25 -6.3125 C-90.7692152 -3.3509304 -90.89685963 -0.47743705 -90.6875 2.8125 C-90.60371094 4.09382813 -90.51992188 5.37515625 -90.43359375 6.6953125 C-90.37300781 7.68273437 -90.31242188 8.67015625 -90.25 9.6875 C-89.08597656 8.83478516 -89.08597656 8.83478516 -87.8984375 7.96484375 C-61.42608157 -11.09740879 -28.39701 -20.20556481 0 0 Z " fill="#1974BA" transform="translate(993.25,84.3125)"/>
<path d="M0 0 C1.53810585 -0.00639748 1.53810585 -0.00639748 3.10728455 -0.01292419 C4.7793824 -0.01224442 4.7793824 -0.01224442 6.48526001 -0.0115509 C8.25973259 -0.01658882 8.25973259 -0.01658882 10.0700531 -0.02172852 C13.31294346 -0.02959805 16.55579537 -0.03290637 19.79869413 -0.0335443 C21.83565383 -0.03425745 23.87260692 -0.03639712 25.90956497 -0.03904152 C33.04889598 -0.04830017 40.18820835 -0.05237708 47.32754517 -0.05158997 C53.92384287 -0.05099388 60.52005754 -0.06145107 67.11633432 -0.07733363 C72.81696362 -0.09055718 78.51756636 -0.09576753 84.21821082 -0.09513456 C87.60537217 -0.09488321 90.99240275 -0.09849124 94.37955856 -0.10831261 C163.37604689 -0.28941844 163.37604689 -0.28941844 188.62051392 23.19621277 C198.95565975 34.03915478 203.32252604 46.81178002 203.05410767 61.60636902 C202.21380839 73.65065865 197.0309093 83.86953365 188.25332642 92.12980652 C175.66299057 102.44744596 161.25204281 108.32513234 145.80801392 113.13371277 C146.89856079 113.47402527 147.98910767 113.81433777 149.11270142 114.16496277 C170.61588324 121.01421352 192.73902486 128.81567046 204.12051392 149.82121277 C212.63951902 168.29840096 212.08361009 191.32563203 205.70645142 210.43449402 C204.53225344 213.41544178 203.2372093 216.26710823 201.80801392 219.13371277 C201.40067017 219.97160339 200.99332642 220.80949402 200.57363892 221.67277527 C190.81082103 239.76270254 172.80929255 249.37495149 153.80801392 255.13371277 C132.55829848 261.13770753 111.07184683 261.44447594 89.13339996 261.40236378 C85.60615249 261.39722089 82.07891426 261.40201616 78.55166626 261.40513611 C72.65174448 261.40874439 66.75187329 261.40405208 60.85195923 261.39445496 C54.03570316 261.38349524 47.21956606 261.3871625 40.40331268 261.39810777 C34.52011852 261.4071745 28.63696017 261.40847137 22.75376129 261.40323043 C19.25233502 261.40011769 15.75096487 261.39968387 12.24954224 261.40630341 C8.36533934 261.41313893 4.48127134 261.40367466 0.59707642 261.39250183 C-1.13731186 261.39857452 -1.13731186 261.39857452 -2.90673828 261.4047699 C-3.96041595 261.39913025 -5.01409363 261.3934906 -6.09970093 261.38768005 C-7.01617401 261.386926 -7.93264709 261.38617195 -8.87689209 261.38539505 C-11.19198608 261.13371277 -11.19198608 261.13371277 -14.19198608 259.13371277 C-14.55158987 256.40671741 -14.70164054 253.9860956 -14.69198608 251.25871277 C-14.72034546 250.53812683 -14.74870483 249.81754089 -14.77792358 249.07511902 C-14.79188731 245.28396728 -14.57439655 243.53386393 -11.91854858 240.75480652 C-9.65814178 239.41086837 -7.46022722 238.15521022 -5.06698608 237.07121277 C-2.22255228 235.7818099 -0.21876192 234.53826043 1.80801392 232.13371277 C3.02919493 228.47016973 2.95611162 225.09775792 2.95518494 221.28302002 C2.95886162 220.47473564 2.96253831 219.66645126 2.96632642 218.83367342 C2.9773695 216.1160532 2.9812081 213.39847121 2.98501587 210.68083191 C2.99127987 208.73616413 2.99792662 206.79149754 3.00492859 204.84683228 C3.02234006 199.557658 3.03289002 194.26849276 3.04113412 188.97929692 C3.04628229 185.67712894 3.052358 182.37496377 3.05864525 179.07279778 C3.07769481 168.74754824 3.09192837 158.42230587 3.10025722 148.09704214 C3.11004011 136.16547165 3.13638808 124.23408616 3.17675811 112.30258089 C3.20687206 103.08724591 3.22172146 93.87196412 3.22503823 84.65658087 C3.22739344 79.14888045 3.23641537 73.64137772 3.2614994 68.13372993 C3.28470365 62.95530616 3.28904428 57.77721135 3.27873802 52.59874916 C3.27824074 50.6959855 3.2846175 48.79320606 3.29829407 46.89049149 C3.31589587 44.29705853 3.30896538 41.70482134 3.29576111 39.11138916 C3.30673035 38.35467912 3.3176996 37.59796908 3.32900125 36.81832844 C3.28627808 33.35389729 3.08069598 31.48636342 0.93207073 28.70761776 C-1.40356994 26.97693124 -3.51321057 26.02631781 -6.25448608 25.07121277 C-12.33693766 22.94006808 -12.33693766 22.94006808 -14.19198608 20.13371277 C-14.5183097 17.54958255 -14.65668582 15.27524228 -14.62948608 12.69621277 C-14.64882202 11.37750183 -14.66815796 10.05879089 -14.68807983 8.70011902 C-14.19198608 5.13371277 -14.19198608 5.13371277 -12.47714233 2.72355652 C-8.62831055 0.04582227 -4.58487697 0.00865935 0 0 Z M84.80801392 19.13371277 C84.80801392 46.85371277 84.80801392 74.57371277 84.80801392 103.13371277 C100.87349618 103.8166859 100.87349618 103.8166859 114.30801392 96.88371277 C123.44983008 80.12371646 122.6200659 51.79775175 117.71817017 33.64933777 C115.55152537 27.66084313 112.63922 24.04931581 106.80801392 21.13371277 C99.32378824 19.23021028 92.61708206 19.13371277 84.80801392 19.13371277 Z M84.80801392 122.13371277 C84.80801392 161.73371277 84.80801392 201.33371277 84.80801392 242.13371277 C99.92477479 241.91353114 99.92477479 241.91353114 112.68301392 235.94621277 C119.95545094 226.32092847 118.96569619 213.92816469 118.97598267 202.43058777 C118.97931107 201.11697266 118.98263947 199.80335754 118.98606873 198.44993591 C118.99202903 195.67297038 118.99391224 192.8960358 118.99331665 190.11906433 C118.99323598 187.31691449 119.00008699 184.51493018 119.01382446 181.71281433 C119.11447896 161.81772174 119.11447896 161.81772174 117.98379517 141.96183777 C117.9144426 141.1241687 117.84509003 140.28649963 117.77363586 139.42344666 C117.18667243 133.78092123 115.68265274 130.25024047 111.87051392 125.94621277 C103.79495318 121.16679927 93.83473854 122.13371277 84.80801392 122.13371277 Z " fill="#1974BA" transform="translate(472.1919860839844,34.86628723144531)"/>
<path d="M0 0 C0.69528809 0.14808105 1.39057617 0.29616211 2.10693359 0.44873047 C32.87577297 7.16122632 70.53824606 26.6260658 89 53 C90.46040504 56.97554706 90.13452774 58.56652174 88.875 62.625 C86.82681067 66.3117408 85.72282134 68.01977588 82 70 C78.42901875 70.9022764 75.57162281 70.93355192 72 70 C69.28269469 68.13492016 67.09762375 66.03536334 64.765625 63.70703125 C59.5940557 58.6450291 53.74778114 54.38217977 48 50 C47.19175781 49.37222656 46.38351562 48.74445312 45.55078125 48.09765625 C14.9331437 25.38823922 -26.34079252 16.9541777 -63.75 22.1875 C-79.42783492 24.59251461 -93.70244712 29.20512338 -108 36 C-108.93457031 36.433125 -109.86914062 36.86625 -110.83203125 37.3125 C-145.38301564 53.85344371 -172.4004369 85.30913894 -185.09741211 121.23730469 C-198.77863309 162.16624817 -195.98901342 204.57734127 -177.01245117 243.33520508 C-156.98639338 282.50040691 -122.88902139 306.3703262 -82 320 C-81.67 295.91 -81.34 271.82 -81 247 C-82.32 246.34 -83.64 245.68 -85 245 C-86.61501764 243.53623726 -88.17785474 242.01409065 -89.703125 240.45703125 C-90.60160156 239.54759766 -91.50007813 238.63816406 -92.42578125 237.70117188 C-93.36756931 236.73865469 -94.30897355 235.77576181 -95.25 234.8125 C-102.27815891 227.56076898 -102.27815891 227.56076898 -109.734375 220.76171875 C-110.35143311 220.20645508 -110.96849121 219.65119141 -111.60424805 219.07910156 C-112.96822069 217.89540738 -114.35203555 216.73186366 -115.78872681 215.63757324 C-122.62050579 210.39349558 -128.90406246 205.29561127 -130.20654297 196.38330078 C-130.65159356 190.08745226 -130.31604666 183.85304076 -129.9375 177.5625 C-129.86209819 175.36676699 -129.79368535 173.17078233 -129.73242188 170.97460938 C-129.56870953 165.64416126 -129.3191915 160.32328431 -129 155 C-130.41599487 154.55188965 -130.41599487 154.55188965 -131.8605957 154.09472656 C-137.50977562 152.12482822 -141.52876635 148.0882026 -144.9375 143.25 C-147.61367931 135.06403977 -147.67637267 127.82761014 -144 120 C-140.97826022 114.18035302 -136.33833819 110.3787836 -130.0703125 108.38671875 C-122.42190259 106.9580535 -116.04223159 107.61858863 -109.23046875 111.44140625 C-104.19474779 114.96023753 -100.87834273 119.13652471 -99 125 C-98.19320134 132.85221487 -97.91000792 140.58153491 -103 147 C-106.9767776 151.29453465 -110.42058738 153.20901897 -116 155 C-116.05496629 160.85429199 -116.05741458 166.70543725 -116.01220703 172.55981445 C-116.00411999 174.54906544 -116.0101249 176.53842751 -116.03076172 178.52758789 C-116.05803352 181.39615106 -116.03382548 184.26049031 -116 187.12890625 C-116.0194165 188.01147598 -116.03883301 188.89404572 -116.05883789 189.80335999 C-115.9713088 193.59160352 -115.80545967 196.03959982 -113.31851196 199.00494385 C-111.28031544 200.78405998 -109.17815402 202.39703381 -107 204 C-105.40469546 205.53438018 -103.82594637 207.08639481 -102.2734375 208.6640625 C-101.4690625 209.47617188 -100.6646875 210.28828125 -99.8359375 211.125 C-99.02382812 211.95 -98.21171875 212.775 -97.375 213.625 C-95.73943793 215.28627846 -94.10147635 216.94519851 -92.4609375 218.6015625 C-91.74728027 219.32682129 -91.03362305 220.05208008 -90.29833984 220.79931641 C-87.63591544 223.34861464 -84.85327838 225.66689582 -82 228 C-82.02525757 226.03377686 -82.02525757 226.03377686 -82.05102539 224.02783203 C-82.10197481 219.12583276 -82.09319784 214.22538676 -82.06713867 209.32324219 C-82.06407214 207.2089465 -82.07682052 205.09456251 -82.10620117 202.98046875 C-82.36352113 183.14343939 -82.36352113 183.14343939 -76.703125 176.85546875 C-75.1627679 175.53765389 -73.59528247 174.25076371 -72 173 C-70.53542337 171.4205152 -69.09445097 169.81852603 -67.6875 168.1875 C-65.0925498 165.29912787 -62.47839027 162.43080437 -59.8359375 159.5859375 C-59.29364502 159.00175049 -58.75135254 158.41756348 -58.19262695 157.81567383 C-57.12538787 156.66787634 -56.05628352 155.52180971 -54.98510742 154.37768555 C-50.09477599 149.30847234 -50.09477599 149.30847234 -48.77294922 142.7121582 C-48.77310028 141.85149246 -48.77325134 140.99082672 -48.77340698 140.1040802 C-48.78372955 139.17899155 -48.79405212 138.25390289 -48.8046875 137.30078125 C-48.8075174 136.35059616 -48.81034729 135.40041107 -48.81326294 134.4214325 C-48.82446285 131.38499385 -48.84956712 128.34884958 -48.875 125.3125 C-48.88503004 123.25456155 -48.89415585 121.19661848 -48.90234375 119.13867188 C-48.92440158 114.0923344 -48.95893018 109.04621712 -49 104 C-49.55443283 103.72946808 -50.10886566 103.45893616 -50.68009949 103.1802063 C-51.40465836 102.82312592 -52.12921722 102.46604553 -52.87573242 102.09814453 C-53.59516525 101.74511261 -54.31459808 101.39208069 -55.05583191 101.02835083 C-60.29156705 98.25895419 -63.03124057 93.65726242 -64.9375 88.1875 C-66.73308943 81.09115854 -66.18667721 74.85571631 -63 68.25 C-59.56088744 62.57848104 -54.22641009 59.07547003 -48 57 C-38.23981032 56.18553821 -31.82394142 57.05313884 -24.25 63.25 C-19.3324302 69.26036309 -16.64819468 75.4451791 -17.1484375 83.34375 C-18.09433477 90.15421031 -20.85649698 95.39414538 -26 100 C-27.36271254 100.74128741 -28.74470143 101.4478063 -30.14013672 102.12548828 C-30.86240448 102.47862091 -31.58467224 102.83175354 -32.3288269 103.19558716 C-32.88031403 103.4610434 -33.43180115 103.72649963 -34 104 C-33.99547569 104.87537415 -33.99547569 104.87537415 -33.99085999 105.76843262 C-33.96620595 111.86898969 -33.99054344 117.96798603 -34.04272461 124.06835938 C-34.05582545 126.34175922 -34.05663441 128.61526572 -34.04467773 130.88867188 C-34.02960927 134.16642212 -34.05943825 137.44123948 -34.09765625 140.71875 C-34.08340103 141.72740112 -34.06914581 142.73605225 -34.05445862 143.77526855 C-34.18829708 150.36962188 -35.57960902 153.72962352 -40.27922058 158.39788818 C-41.13100639 159.19093353 -41.13100639 159.19093353 -42 160 C-42.74765625 160.84046875 -43.4953125 161.6809375 -44.265625 162.546875 C-47.4441035 166.07573696 -50.62708096 169.59963241 -53.84375 173.09375 C-54.32682617 173.6187207 -54.80990234 174.14369141 -55.30761719 174.68457031 C-56.67751188 176.17132806 -58.04963189 177.6560345 -59.421875 179.140625 C-60.27265625 180.08421875 -61.1234375 181.0278125 -62 182 C-63.29685982 183.16615341 -63.29685982 183.16615341 -64.61991882 184.35586548 C-68.55655748 189.15450162 -67.700108 195.26910179 -67.65942383 201.16552734 C-67.66788335 202.50631193 -67.67853037 203.84708422 -67.69119263 205.18783569 C-67.71928609 208.815636 -67.71687704 212.44284398 -67.70889878 216.0707202 C-67.70576943 219.86645915 -67.73082054 223.66201085 -67.75285339 227.45767212 C-67.79027731 234.63986429 -67.80244039 241.82186712 -67.8054778 249.00414717 C-67.81017044 257.18318187 -67.84310029 265.36202712 -67.87837565 273.54097819 C-67.95028667 290.36064083 -67.98682314 307.18018662 -68 324 C-65.49819464 324.1671859 -62.99624909 324.33136197 -60.49414062 324.49389648 C-59.79726135 324.54077354 -59.10038208 324.5876506 -58.38238525 324.63594818 C-51.0847872 325.10543754 -43.81208324 325.11114964 -36.5 325.0625 C-29.8175 325.0315625 -29.8175 325.0315625 -23 325 C-23.33 309.49 -23.66 293.98 -24 278 C-27.96 276.02 -27.96 276.02 -32 274 C-37.06195607 269.73363624 -40.43806217 264.05219612 -41.3515625 257.46484375 C-41.73483871 250.29354418 -40.11358108 244.88685413 -36 239 C-30.76286314 233.23795649 -25.18043911 230.66009265 -17.4609375 229.98046875 C-10.00446976 230.03964707 -4.00653889 232.85298463 1.3046875 237.9921875 C6.18748143 243.77503561 7.7101509 249.79787357 7.375 257.296875 C6.31115718 264.96540865 2.94139044 269.6755305 -2.90234375 274.58984375 C-5 276 -5 276 -10 278 C-10.33 292.85 -10.66 307.7 -11 323 C11.13717085 315.96189798 11.13717085 315.96189798 32 306 C33.05832031 305.42636719 34.11664063 304.85273438 35.20703125 304.26171875 C50.86406572 295.51870207 64.19542351 283.8372078 75.74609375 270.21484375 C78.89741056 267.11814249 81.6106908 266.17735862 85.9375 265.625 C90.84768745 266.22624744 93.80165507 268.52204125 96.875 272.3125 C98.40338184 275.9636344 98.59197651 278.05348994 98 282 C94.4511958 288.64715575 89.45329473 294.06104385 84.125 299.3125 C83.38540039 300.04525146 82.64580078 300.77800293 81.88378906 301.53295898 C46.57867656 335.83653462 -0.93882987 351.61364333 -49.5546875 350.9765625 C-90.33672714 349.70994979 -135.20362274 332.35637463 -163.6015625 302.50390625 C-164.06304687 302.00761719 -164.52453125 301.51132812 -165 301 C-166.175625 299.824375 -166.175625 299.824375 -167.375 298.625 C-168.24125 297.75875 -169.1075 296.8925 -170 296 C-170.61101562 295.44699219 -171.22203125 294.89398438 -171.8515625 294.32421875 C-196.38581219 271.3512395 -211.41376088 236.6143743 -217 204 C-217.18256348 202.95038086 -217.36512695 201.90076172 -217.55322266 200.81933594 C-219.00088748 191.73630267 -219.39834426 182.79735066 -219.375 173.625 C-219.37512085 172.88865326 -219.3752417 172.15230652 -219.37536621 171.39364624 C-219.34417666 157.95258348 -217.93012397 145.13769738 -215 132 C-214.86110352 131.31599121 -214.72220703 130.63198242 -214.57910156 129.92724609 C-209.95162302 107.20785717 -198.46897786 85.60308152 -184.9375 67 C-184.08913574 65.83343872 -184.08913574 65.83343872 -183.22363281 64.64331055 C-179.70748602 59.94145104 -175.93347486 55.75390405 -171.70141602 51.68383789 C-169.86039831 49.9334149 -169.86039831 49.9334149 -168 47.4375 C-144.3649035 18.63222614 -103.4610962 3.06076519 -68 -3 C-66.97648438 -3.185625 -65.95296875 -3.37125 -64.8984375 -3.5625 C-43.26433114 -6.82802549 -21.23016503 -4.66488567 0 0 Z M-49 72 C-51.33338084 74.57270196 -52.84967491 76.46668405 -53.1953125 79.9921875 C-52.95216386 83.78244564 -52.14943758 85.78716466 -49.9375 88.9375 C-45.9740866 91.72032217 -43.84849853 92 -39 92 C-35.29537361 90.43582441 -32.99517626 88.49155846 -31 85 C-29.86063213 81.25636271 -29.81106515 79.5071409 -31.1875 75.8125 C-33.68409272 71.93847681 -35.47209527 70.46501448 -39.875 69.125 C-43.87040676 68.96518373 -45.69220987 69.77083709 -49 72 Z M-133.3125 126.875 C-134.26385272 129.81554477 -134.36983143 131.91807139 -134 135 C-132.36564595 138.03522895 -130.944447 140.28352297 -128.1875 142.375 C-124.8305759 143.33412117 -122.48922852 143.47311573 -119 143 C-115.06418128 140.73982687 -112.50537088 138.31957951 -110.875 134.0625 C-111.03864142 130.05328519 -112.02560684 127.48809459 -114 124 C-117.42258105 120.96857107 -120.633568 120.46873571 -125.0703125 120.64453125 C-128.95879019 121.36082977 -131.12613165 123.75161664 -133.3125 126.875 Z M-26 247 C-28.64930485 250.34042786 -28.3625472 253.86696196 -28 258 C-26.58599386 261.45645946 -25.34227609 262.76662994 -22.25 264.875 C-18.23611411 266.26442204 -16.07284906 266.18482882 -12 265 C-8.18642721 261.76675351 -6.16863221 259.75377496 -5.6875 254.75 C-6.0586298 250.29644235 -7.10314274 248.3666179 -10 245 C-16.16562748 241.60890489 -20.67527204 243.12381265 -26 247 Z " fill="#1974BA" transform="translate(219,5)"/>
<path d="M0 0 C2.5431041 2.23240813 4.98939557 4.52631754 7.40234375 6.8984375 C8.34400391 7.82076172 8.34400391 7.82076172 9.3046875 8.76171875 C30.843517 31.57041122 31.40234375 64.53829013 31.40234375 93.8984375 C-0.60765625 93.8984375 -32.61765625 93.8984375 -65.59765625 93.8984375 C-65.51515625 105.7371875 -65.43265625 117.5759375 -65.34765625 129.7734375 C-65.32396973 135.35354736 -65.32396973 135.35354736 -65.29980469 141.04638672 C-65.26653135 144.41923326 -65.26653135 144.41923326 -65.22808838 147.79202271 C-65.21359942 149.2790307 -65.20670764 150.76612588 -65.20611572 152.25320435 C-65.19548455 162.11465438 -64.97133847 171.16487089 -58.73828125 179.3359375 C-52.147449 184.7829063 -47.23685523 186.18717095 -38.72265625 185.7734375 C-30.18651947 184.84653376 -22.62726547 182.20211986 -16.59765625 175.8984375 C-9.58352259 166.07520363 -7.32907584 156.9289155 -6.33105469 145.10546875 C-5.99043224 141.31503508 -5.74645126 139.12163002 -3.59765625 135.8984375 C6.23348843 132.70672907 18.57119907 132.70672907 28.40234375 135.8984375 C30.89716618 139.64067115 30.74760507 142.62427459 30.71484375 146.9609375 C30.7092041 147.72809082 30.70356445 148.49524414 30.69775391 149.28564453 C30.37258432 164.5299811 22.68194428 176.97117232 12.40234375 187.8984375 C9.22965011 190.82318538 5.92768199 193.41318352 2.40234375 195.8984375 C1.6340625 196.44242188 0.86578125 196.98640625 0.07421875 197.546875 C-14.25767683 206.89582675 -31.08587286 209.28658919 -47.84765625 209.2109375 C-49.13091797 209.20602295 -50.41417969 209.2011084 -51.73632812 209.19604492 C-74.75020372 208.9111474 -96.30066634 201.46306324 -113.59765625 185.8984375 C-114.08121582 185.46402344 -114.56477539 185.02960938 -115.06298828 184.58203125 C-137.35812051 164.26098404 -144.96823045 135.87845007 -146.34765625 106.5859375 C-147.57239098 73.65996099 -142.95165596 37.28385347 -119.78515625 11.9609375 C-90.09864311 -19.08267338 -34.87558226 -28.21513271 0 0 Z M-61.59765625 7.8984375 C-66.96458376 13.59360986 -66.11068892 19.92238388 -65.98828125 27.390625 C-65.98262146 28.69170197 -65.97696167 29.99277893 -65.97113037 31.33328247 C-65.95592869 34.77603431 -65.91669618 38.21810068 -65.87231445 41.6605835 C-65.83124231 45.17987633 -65.81287417 48.69928428 -65.79296875 52.21875 C-65.75232115 59.11258262 -65.67401944 66.00453812 -65.59765625 72.8984375 C-56.35765625 72.8984375 -47.11765625 72.8984375 -37.59765625 72.8984375 C-37.53466071 65.44629786 -37.47456648 57.99512836 -37.4424057 50.54295349 C-37.42659566 47.07230175 -37.40548529 43.60187154 -37.37133789 40.13134766 C-37.33236165 36.14488441 -37.31791988 32.1585101 -37.3046875 28.171875 C-37.28146172 26.31530777 -37.28146172 26.31530777 -37.25776672 24.42123413 C-37.16882726 16.21366382 -37.16882726 16.21366382 -40.59765625 8.8984375 C-46.80752782 3.89604096 -54.86954599 3.83172391 -61.59765625 7.8984375 Z " fill="#1974BA" transform="translate(1284.59765625,89.1015625)"/>
<path d="M0 0 C0.86529327 -0.00189835 1.73058655 -0.00379669 2.62210083 -0.00575256 C5.48570786 -0.00946093 8.34906195 0.00124413 11.21264648 0.01245117 C13.19896922 0.01364297 15.18529252 0.01409613 17.1716156 0.01383972 C21.33531215 0.01540466 25.49892273 0.02369565 29.66259766 0.03710938 C35.00840092 0.05411023 40.35410974 0.0579234 45.69993687 0.05716419 C49.80133471 0.05743567 53.90271177 0.06291315 58.00410271 0.07016563 C59.97574646 0.07335483 61.94739258 0.07532029 63.91903877 0.07605934 C66.67002528 0.07821962 69.4209102 0.08695679 72.171875 0.09765625 C72.99218704 0.09720306 73.81249908 0.09674988 74.65766907 0.09628296 C80.29228424 0.12844192 80.29228424 0.12844192 82.52124023 1.24291992 C83.5382614 4.29398342 83.68706107 6.48491053 83.70874023 9.68041992 C83.72291992 10.62788086 83.73709961 11.5753418 83.75170898 12.55151367 C83.51336737 15.33485895 83.05560867 16.92571045 81.52124023 19.24291992 C80.67561523 19.67604492 79.82999023 20.10916992 78.95874023 20.55541992 C76.19734959 22.07512298 76.19734959 22.07512298 75.69726562 25.40917969 C75.49212757 29.87697848 76.38491808 32.23651531 78.26733398 36.27026367 C78.55729752 36.90404434 78.84726105 37.53782501 79.14601135 38.19081116 C80.06754596 40.1952476 81.01253337 42.18753044 81.95874023 44.18041992 C82.59118773 45.54491932 83.22206378 46.91014826 83.85131836 48.27612305 C85.38987635 51.60701939 86.94965495 54.92745564 88.52124023 58.24291992 C89.18124023 58.24291992 89.84124023 58.24291992 90.52124023 58.24291992 C92.03895751 56.38716629 92.03895751 56.38716629 93.56811523 53.96557617 C94.16624023 53.0587207 94.76436523 52.15186523 95.38061523 51.2175293 C96.00452148 50.2565332 96.62842773 49.29553711 97.27124023 48.30541992 C97.87967773 47.37922852 98.48811523 46.45303711 99.11499023 45.4987793 C100.33030306 43.64854343 101.54175625 41.79576643 102.74926758 39.94042969 C104.91050253 36.65033806 107.13524122 33.40552329 109.37817383 30.1706543 C110.90306842 27.59898243 111.3691293 25.2090832 111.52124023 22.24291992 C110.65499023 21.83686523 110.65499023 21.83686523 109.77124023 21.42260742 C107.13716916 19.89521204 105.4251541 18.64044108 103.52124023 16.24291992 C102.64438188 11.49820171 102.62699858 6.98787565 103.52124023 2.24291992 C106.72173333 0.10925786 107.54486761 -0.00888166 111.22045898 -0.01586914 C112.17154541 -0.02217346 113.12263184 -0.02847778 114.10253906 -0.03497314 C115.64010864 -0.02890045 115.64010864 -0.02890045 117.20874023 -0.02270508 C118.26279053 -0.02461853 119.31684082 -0.02653198 120.40283203 -0.02850342 C122.63208251 -0.02986483 124.86134092 -0.02617146 127.09057617 -0.01782227 C130.50774908 -0.00712232 133.92439623 -0.01771924 137.34155273 -0.03051758 C139.5056164 -0.02919598 141.66967973 -0.02663357 143.83374023 -0.02270508 C144.85878662 -0.02675354 145.88383301 -0.030802 146.93994141 -0.03497314 C147.89102783 -0.02866882 148.84211426 -0.0223645 149.82202148 -0.01586914 C150.65902588 -0.01427795 151.49603027 -0.01268677 152.35839844 -0.01104736 C154.52124023 0.24291992 154.52124023 0.24291992 157.52124023 2.24291992 C159.1442823 7.2595954 158.92277498 12.77634937 158.08374023 17.93041992 C156.30509809 20.56281029 155.14198735 21.05495195 152.33374023 22.43041992 C148.57683576 24.35449703 146.53308178 26.16901789 144.19702148 29.67651367 C143.29971313 31.0137146 143.29971313 31.0137146 142.38427734 32.37792969 C141.46207397 33.79609985 141.46207397 33.79609985 140.52124023 35.24291992 C139.91094971 36.17869873 139.30065918 37.11447754 138.671875 38.07861328 C136.73179396 41.08247137 134.81175601 44.09834346 132.89624023 47.11791992 C131.48928107 49.32663106 130.08172053 51.53495923 128.67358398 53.74291992 C127.9773291 54.83475586 127.28107422 55.9265918 126.5637207 57.05151367 C124.09779931 60.9045527 121.6110656 64.74356876 119.11352539 68.57617188 C118.02439116 70.24908077 116.93931411 71.92463925 115.85864258 73.60302734 C113.6672763 77.00065991 111.47042887 80.36194075 109.05639648 83.60620117 C108.04899414 85.00418945 108.04899414 85.00418945 107.02124023 86.43041992 C106.17045898 87.53450195 106.17045898 87.53450195 105.30249023 88.66088867 C103.43103156 94.8460596 108.59698973 102.9522438 111.18920898 108.60620117 C111.5412439 109.38396408 111.89327881 110.16172699 112.25598145 110.96305847 C113.01105624 112.63013041 113.76809594 114.29631356 114.52694702 115.96166992 C116.14000224 119.50193561 117.74323713 123.04661828 119.34687805 126.59115601 C120.17445503 128.42032175 121.00249182 130.24927951 121.83097839 132.07803345 C125.99834503 141.28128947 130.10985482 150.50900377 134.20874023 159.74291992 C134.84894912 161.18343508 135.48916697 162.62394626 136.12939453 164.06445312 C136.43601517 164.75537552 136.7426358 165.44629791 137.05854797 166.15815735 C137.65989063 167.5123078 138.26247332 168.86590837 138.86637878 170.21891785 C140.40610921 173.67890675 141.90639084 177.15025588 143.35571289 180.64916992 C143.65935257 181.37172974 143.96299225 182.09428955 144.27583313 182.83874512 C144.84919828 184.20649278 145.41310958 185.57826145 145.96525574 186.95471191 C148.35540359 192.61734697 151.99051288 196.16914665 156.77124023 199.86791992 C159.52124023 202.24291992 159.52124023 202.24291992 160.52124023 205.24291992 C160.64149318 207.59484385 160.69656358 209.95045524 160.70874023 212.30541992 C160.72291992 213.55452148 160.73709961 214.80362305 160.75170898 216.09057617 C160.52124023 219.24291992 160.52124023 219.24291992 158.52124023 221.24291992 C155.67572617 221.44687953 152.92713782 221.5260796 150.08007812 221.51757812 C149.2067836 221.52268906 148.33348907 221.52779999 147.43373108 221.5330658 C144.5370505 221.54700497 141.64060669 221.54600177 138.74389648 221.54370117 C136.73611868 221.54758577 134.7283417 221.55191995 132.7205658 221.5566864 C128.5080194 221.56415796 124.29555679 221.5638506 120.08300781 221.55859375 C114.67775166 221.55279837 109.27283808 221.5697273 103.86763859 221.59293842 C99.71986375 221.60765201 95.57217185 221.6085507 91.42437553 221.6054287 C89.4312211 221.60594312 87.43806217 221.61120347 85.44493294 221.62124062 C82.66032618 221.63354153 79.87639241 221.62685161 77.09179688 221.61523438 C75.85033905 221.62669998 75.85033905 221.62669998 74.58380127 221.63839722 C68.9630447 221.58641916 68.9630447 221.58641916 66.81748104 219.91826153 C64.13417944 216.45019696 64.95088158 211.76871116 65.03295898 207.58276367 C65.51932836 204.25599716 65.76758176 203.06645259 68.27124023 200.93041992 C70.86178488 199.58532943 72.74087202 198.85339207 75.52124023 198.24291992 C73.33112041 189.83290832 69.97206967 182.0837674 66.39624023 174.18041992 C65.83974415 172.93390113 65.28375123 171.68715758 64.72827148 170.44018555 C62.67726341 164.99219477 62.67726341 164.99219477 59.52124023 160.24291992 C56.32149467 164.90482027 53.12717975 169.57029221 49.94311523 174.24291992 C47.95629052 177.15634536 45.9550501 180.0562747 43.91186523 182.93041992 C43.20545898 183.94104492 42.49905273 184.95166992 41.77124023 185.99291992 C41.15764648 186.85401367 40.54405273 187.71510742 39.91186523 188.60229492 C38.22329706 191.80867719 37.85678875 194.65784899 37.52124023 198.24291992 C38.08713867 198.5084668 38.65303711 198.77401367 39.23608398 199.04760742 C39.96956055 199.40081055 40.70303711 199.75401367 41.45874023 200.11791992 C42.18963867 200.4659668 42.92053711 200.81401367 43.67358398 201.17260742 C45.52124023 202.24291992 45.52124023 202.24291992 46.52124023 204.24291992 C46.64432933 206.55298736 46.69680363 208.86710628 46.70874023 211.18041992 C46.72291992 212.42694336 46.73709961 213.6734668 46.75170898 214.95776367 C46.52124023 218.24291992 46.52124023 218.24291992 44.52124023 221.24291992 C42.32006836 221.61714172 42.32006836 221.61714172 39.55249023 221.61523438 C38.51801758 221.62146317 37.48354492 221.62769196 36.41772461 221.6341095 C35.29688477 221.62489975 34.17604492 221.61569 33.02124023 221.60620117 C31.30130859 221.60694893 31.30130859 221.60694893 29.54663086 221.60771179 C27.11887888 221.60536804 24.69112463 221.59562196 22.26342773 221.57910156 C18.53664538 221.55551741 14.81057817 221.55853751 11.08374023 221.56518555 C8.72956928 221.55960889 6.37540135 221.55249909 4.02124023 221.54370117 C2.33998047 221.54506828 2.33998047 221.54506828 0.62475586 221.54646301 C-0.4097168 221.536931 -1.44418945 221.52739899 -2.51000977 221.51757812 C-3.42331055 221.51297073 -4.33661133 221.50836334 -5.27758789 221.50361633 C-7.47875977 221.24291992 -7.47875977 221.24291992 -9.47875977 219.24291992 C-10.18663746 213.36380941 -10.82435782 207.32642658 -7.54125977 202.24291992 C-5.86734022 201.14974797 -4.18048389 200.07279352 -2.44384766 199.08227539 C4.01147926 195.20415956 7.36109917 190.78781604 11.14624023 184.36791992 C11.73324707 183.40974365 12.32025391 182.45156738 12.92504883 181.46435547 C14.16882247 179.43356029 15.40517822 177.39820553 16.63452148 175.35864258 C19.12803977 171.24085268 21.68309 167.16339056 24.24731445 163.08935547 C25.51189435 161.06892163 26.76360093 159.04037239 28.00219727 157.00390625 C30.93655221 152.20042874 33.92017185 147.63127088 37.45092773 143.24291992 C43.42552863 135.93887795 43.42552863 135.93887795 45.43041992 127.03198242 C44.08518641 121.50561774 41.15416533 116.68886677 38.39331055 111.76489258 C34.87214589 105.14043753 31.96056017 98.2265278 28.93353271 91.36593628 C26.9973051 86.99633329 25.02324874 82.64390387 23.05249023 78.28979492 C20.24592882 72.07763086 17.45169667 65.86022516 14.67749023 59.63354492 C14.23587555 58.64342407 14.23587555 58.64342407 13.78533936 57.63330078 C12.43950981 54.61577635 11.09584857 51.59735574 9.7565918 48.5769043 C7.37570739 43.23971468 4.93797535 37.93341474 2.39233398 32.67260742 C1.69901978 31.23763916 1.69901978 31.23763916 0.99169922 29.77368164 C-1.82184262 24.93138134 -5.91581699 22.28488177 -10.47875977 19.24291992 C-11.64447725 15.74576748 -11.68303737 12.86488316 -11.72875977 9.18041992 C-11.75454102 7.93131836 -11.78032227 6.6822168 -11.80688477 5.39526367 C-11.69860352 4.35499023 -11.59032227 3.3147168 -11.47875977 2.24291992 C-7.62426803 -0.32674124 -4.46706518 -0.03067711 0 0 Z " fill="#1974BA" transform="translate(1344.478759765625,74.757080078125)"/>
<path d="M0 0 C1.05684494 -0.00744736 1.05684494 -0.00744736 2.13504028 -0.01504517 C4.45925889 -0.02961687 6.78340929 -0.03645952 9.10766602 -0.04199219 C10.72664898 -0.04774663 12.34563193 -0.05350433 13.96461487 -0.05926514 C17.35645871 -0.06976013 20.74827894 -0.07561298 24.14013672 -0.07910156 C28.4824314 -0.08459093 32.82441327 -0.10863455 37.16660976 -0.13707352 C40.50980031 -0.15571023 43.85291554 -0.16090599 47.19615364 -0.16243744 C48.79691343 -0.16546088 50.39767198 -0.17347902 51.99838066 -0.18662262 C54.23874551 -0.20370935 56.47834613 -0.20179717 58.71875 -0.1953125 C59.99241928 -0.19895813 61.26608856 -0.20260376 62.57835388 -0.20635986 C66.35400149 0.20835611 68.01750882 0.7262802 70.92407227 3.16113281 C71.43269415 5.89323479 71.59065057 8.01610917 71.54312134 10.75280762 C71.54936032 11.5332127 71.5555993 12.31361777 71.56202734 13.11767149 C71.57698903 15.74139344 71.55627242 18.3636367 71.53588867 20.98730469 C71.53942826 22.86463449 71.54520397 24.74196123 71.55305481 26.61927795 C71.56525272 30.66601258 71.56174462 34.71232604 71.54622269 38.75904846 C71.52196817 45.1535742 71.53337511 51.54772874 71.54989624 57.94226074 C71.57441588 69.20576101 71.56858059 80.46909342 71.55609131 91.73260498 C71.53751907 108.69361634 71.54229414 125.65459617 71.5761255 142.6155839 C71.58766606 148.97649565 71.58316459 155.33713926 71.56610513 161.69803619 C71.55822712 165.65005572 71.56244609 169.60199658 71.56981468 173.55401421 C71.57062737 175.39107724 71.56624459 177.22815077 71.55637169 179.06518745 C71.54357411 181.5668403 71.54899229 184.06780802 71.55899048 186.56945801 C71.5507323 187.30184425 71.54247413 188.03423049 71.53396571 188.78881025 C71.55547208 192.64697809 71.55547208 192.64697809 73.25548363 196.01061249 C74.81532522 197.08614987 76.4001962 198.12513212 77.98657227 199.16113281 C80.92407227 201.16113281 80.92407227 201.16113281 82.92407227 204.16113281 C83.22485352 207.41113281 83.22485352 207.41113281 83.23657227 211.16113281 C83.25333008 212.39863281 83.27008789 213.63613281 83.28735352 214.91113281 C82.92407227 218.16113281 82.92407227 218.16113281 81.6398344 219.84171009 C78.63158477 222.15505693 74.87378001 221.54848904 71.22998047 221.50170898 C70.34196747 221.50214706 69.45395447 221.50258514 68.53903198 221.5030365 C65.60074965 221.50094471 62.6630363 221.47759521 59.72485352 221.45410156 C57.68890189 221.448507 55.65294624 221.44423624 53.61698914 221.4412384 C48.25585804 221.42977867 42.89497039 221.40030168 37.53393555 221.36712646 C32.06440525 221.33644996 26.59483565 221.32273824 21.12524414 221.30761719 C10.39141316 221.27543314 -0.34223705 221.22422308 -11.07592773 221.16113281 C-12.95385571 217.67301828 -13.37333287 215.2137098 -13.38842773 211.22363281 C-13.40518555 210.20398438 -13.42194336 209.18433594 -13.43920898 208.13378906 C-13.0018464 204.55494038 -12.35848882 202.96593667 -10.07592773 200.16113281 C-9.44532472 199.90440576 -8.8147217 199.6476787 -8.1650095 199.38317204 C-5.51671278 198.28920694 -3.99204076 197.31279055 -2.07592773 195.16113281 C-0.84050502 189.94963995 -1.05470007 184.7380452 -1.15185547 179.41870117 C-1.1524752 177.78900426 -1.14958428 176.15930279 -1.14344788 174.52961731 C-1.13688107 170.10761198 -1.17980885 165.6873127 -1.23184466 161.26566005 C-1.27816007 156.63913755 -1.27990243 152.01259822 -1.28663635 147.38587952 C-1.30410562 139.61722099 -1.35048276 131.84919374 -1.41748047 124.08081055 C-1.51194804 113.12345614 -1.55540848 102.16634356 -1.58811271 91.20865428 C-1.63465173 76.53396412 -1.69539381 61.85901667 -1.81647301 47.18473625 C-1.8289889 45.59483028 -1.83988605 44.00491063 -1.84905624 42.41498184 C-1.8619907 40.24675565 -1.88104997 38.07867032 -1.90184021 35.9105072 C-1.91130897 34.69654738 -1.92077772 33.48258757 -1.93053341 32.23184109 C-2.05197267 29.66706051 -2.16016514 27.55263593 -3.07592773 25.16113281 C-5.37127031 24.02567719 -5.37127031 24.02567719 -8.07592773 23.16113281 C-10.72045898 22.13769531 -10.72045898 22.13769531 -13.07592773 20.16113281 C-13.51050513 17.09477902 -13.64228899 14.64329583 -13.51342773 11.59863281 C-13.50762695 10.81810547 -13.50182617 10.03757812 -13.49584961 9.23339844 C-13.37123886 3.45644393 -13.37123886 3.45644393 -11.07592773 1.16113281 C-7.46902588 -0.1569378 -3.8024482 0.02039725 0 0 Z " fill="#1974BA" transform="translate(716.075927734375,74.8388671875)"/>
<path d="M0 0 C3.22945536 1.45398556 5.67498309 3.28176899 8.375 5.5625 C18.95495513 14.09472188 29.0156912 19.8708903 42 24 C43.6699995 24.65827341 45.33725407 25.32361387 47 26 C47.67776206 53.07224961 46.27600292 81.76137254 26.875 102.6875 C21.54616388 107.77868648 15.41411362 111.44286296 9 115 C7.98292969 115.59039062 6.96585937 116.18078125 5.91796875 116.7890625 C2.57386961 118.17684126 1.37412043 118.16775779 -2 117 C-21.34616273 108.41161132 -32.71392288 93.91581229 -40.28515625 74.74609375 C-45.62154759 58.85866251 -46.47264209 42.61249415 -46 26 C-44.36804688 25.56300781 -44.36804688 25.56300781 -42.703125 25.1171875 C-25.23457496 20.31203917 -12.80878199 12.80878199 0 0 Z " fill="#1974BA" transform="translate(259,119)"/>
<path d="M0 0 C0.91706889 -0.00500704 1.83413779 -0.01001407 2.77899665 -0.01517284 C3.79513897 -0.01049051 4.81128129 -0.00580817 5.85821581 -0.00098395 C7.47401961 -0.00534428 7.47401961 -0.00534428 9.12246591 -0.00979269 C12.77485769 -0.01716026 16.427085 -0.01011804 20.07947588 -0.00326896 C22.70727532 -0.00557072 25.33507412 -0.00874532 27.96287155 -0.01272345 C33.69828417 -0.01996832 39.43365919 -0.01971456 45.16907358 -0.01462913 C53.69760086 -0.00708753 62.22609621 -0.01091943 70.75462325 -0.01704574 C85.98346632 -0.02759723 101.21229265 -0.0266565 116.44113733 -0.02088792 C129.76784585 -0.0158644 143.09454822 -0.01453985 156.4212575 -0.0169332 C157.30393267 -0.01708597 158.18660784 -0.01723874 159.09603074 -0.01739614 C162.67875107 -0.01801878 166.26147139 -0.01865558 169.84419171 -0.01931567 C203.47920242 -0.02543895 237.11420243 -0.01987838 270.74921148 -0.00912188 C300.65703483 0.00036992 330.56484115 -0.00047931 360.47266436 -0.01004386 C394.04464988 -0.02074422 427.61662595 -0.02500476 461.18861294 -0.01881933 C464.76495059 -0.01817786 468.34128825 -0.01755218 471.9176259 -0.0169332 C472.79826491 -0.01677505 473.67890392 -0.01661689 474.58622896 -0.01645395 C487.90725831 -0.01417532 501.22828085 -0.01684639 514.54930925 -0.02189231 C529.69008757 -0.0275988 544.83084647 -0.02620693 559.97162235 -0.01533082 C568.45400141 -0.0094393 576.93633847 -0.00910208 585.41871648 -0.01662317 C591.73650635 -0.02160901 598.05424614 -0.01623828 604.37202984 -0.00667402 C606.93995569 -0.0044247 609.5078871 -0.00561015 612.07580942 -0.0104256 C615.54417808 -0.01643478 619.0123116 -0.01034347 622.48066759 -0.00098395 C624.00488108 -0.00800745 624.00488108 -0.00800745 625.55988675 -0.01517284 C626.47695565 -0.0101658 627.39402454 -0.00515877 628.3388834 0 C629.53006013 0.00020328 629.53006013 0.00020328 630.74530104 0.00041066 C632.6694417 0.25069833 632.6694417 0.25069833 634.6694417 2.25069833 C634.9819417 5.25069833 634.9819417 5.25069833 634.6694417 8.25069833 C631.52229584 10.34879557 630.81255417 10.50078283 627.22865963 10.50139666 C626.3124665 10.50640369 625.39627338 10.51141073 624.45231682 10.5165695 C623.44229605 10.51188716 622.43227528 10.50720483 621.39164782 10.50238061 C619.77962777 10.50674093 619.77962777 10.50674093 618.13504165 10.51118934 C614.4972422 10.51854722 610.85960837 10.51151911 607.22180986 10.50466561 C604.60210966 10.50696776 601.9824101 10.51014262 599.36271191 10.5141201 C593.64806708 10.52136079 587.93346001 10.52111376 582.21881342 10.51602578 C573.72113007 10.50848041 565.22347873 10.51231807 556.72579561 10.5184424 C541.55152963 10.52899092 526.37728046 10.52805433 511.20301287 10.52228457 C497.92402384 10.51726005 484.64504098 10.51593698 471.3660512 10.51832986 C470.48636259 10.51848263 469.60667397 10.5186354 468.70032813 10.5187928 C465.12968425 10.51941544 461.55904038 10.52005224 457.9883965 10.52071233 C424.47025001 10.52683491 390.95211425 10.52127614 357.43396942 10.51051853 C327.63338542 10.50102682 297.83281851 10.50187605 268.03223467 10.51144052 C234.57669468 10.52214206 201.12116417 10.52640076 167.66562271 10.52021599 C164.10135921 10.51957452 160.53709571 10.51894884 156.9728322 10.51832986 C156.09517342 10.5181717 155.21751463 10.51801355 154.31326013 10.5178506 C141.04028652 10.51557246 127.76731975 10.51824214 114.4943471 10.52328897 C99.40742036 10.52899679 84.32051311 10.52760071 69.23358881 10.51672748 C60.78251984 10.51083822 52.33149302 10.51049551 43.8804251 10.51801983 C37.5842078 10.52300895 31.28804069 10.51763021 24.99182957 10.50807068 C22.43400998 10.50582291 19.87618478 10.50700341 17.31836873 10.51182225 C13.86124174 10.51783945 10.40434995 10.51173169 6.94723558 10.50238061 C5.93721481 10.50706294 4.92719404 10.51174527 3.88656658 10.5165695 C2.97037345 10.51156246 2.05418033 10.50655542 1.11022377 10.50139666 C0.31898136 10.50126114 -0.47226105 10.50112562 -1.2874805 10.50098599 C-3.3305583 10.25069833 -3.3305583 10.25069833 -6.3305583 8.25069833 C-6.6430583 5.25069833 -6.6430583 5.25069833 -6.3305583 2.25069833 C-3.90130085 -0.17855912 -3.32458424 0.00056735 0 0 Z " fill="#1974BA" transform="translate(875.3305583000183,344.7493016719818)"/>
<path d="M0 0 C0.91706889 -0.00500704 1.83413779 -0.01001407 2.77899665 -0.01517284 C3.79513897 -0.01049051 4.81128129 -0.00580817 5.85821581 -0.00098395 C7.47401961 -0.00534428 7.47401961 -0.00534428 9.12246591 -0.00979269 C12.77485769 -0.01716026 16.427085 -0.01011804 20.07947588 -0.00326896 C22.70727532 -0.00557072 25.33507412 -0.00874532 27.96287155 -0.01272345 C33.69828417 -0.01996832 39.43365919 -0.01971456 45.16907358 -0.01462913 C53.69760086 -0.00708753 62.22609621 -0.01091943 70.75462325 -0.01704574 C85.98346632 -0.02759723 101.21229265 -0.0266565 116.44113733 -0.02088792 C129.76784585 -0.0158644 143.09454822 -0.01453985 156.4212575 -0.0169332 C157.30393267 -0.01708597 158.18660784 -0.01723874 159.09603074 -0.01739614 C162.67875107 -0.01801878 166.26147139 -0.01865558 169.84419171 -0.01931567 C203.47920242 -0.02543895 237.11420243 -0.01987838 270.74921148 -0.00912188 C300.65703483 0.00036992 330.56484115 -0.00047931 360.47266436 -0.01004386 C394.04464988 -0.02074422 427.61662595 -0.02500476 461.18861294 -0.01881933 C464.76495059 -0.01817786 468.34128825 -0.01755218 471.9176259 -0.0169332 C472.79826491 -0.01677505 473.67890392 -0.01661689 474.58622896 -0.01645395 C487.90725831 -0.01417532 501.22828085 -0.01684639 514.54930925 -0.02189231 C529.69008757 -0.0275988 544.83084647 -0.02620693 559.97162235 -0.01533082 C568.45400141 -0.0094393 576.93633847 -0.00910208 585.41871648 -0.01662317 C591.73650635 -0.02160901 598.05424614 -0.01623828 604.37202984 -0.00667402 C606.93995569 -0.0044247 609.5078871 -0.00561015 612.07580942 -0.0104256 C615.54417808 -0.01643478 619.0123116 -0.01034347 622.48066759 -0.00098395 C624.00488108 -0.00800745 624.00488108 -0.00800745 625.55988675 -0.01517284 C626.47695565 -0.0101658 627.39402454 -0.00515877 628.3388834 0 C629.53006013 0.00020328 629.53006013 0.00020328 630.74530104 0.00041066 C632.6694417 0.25069833 632.6694417 0.25069833 634.6694417 2.25069833 C634.9194417 4.75069833 634.9194417 4.75069833 634.6694417 7.25069833 C632.24018425 9.67995578 631.66346764 9.50082931 628.3388834 9.50139666 C626.96328006 9.50890721 626.96328006 9.50890721 625.55988675 9.5165695 C624.54374443 9.51188716 623.52760211 9.50720483 622.48066759 9.50238061 C620.86486379 9.50674093 620.86486379 9.50674093 619.21641749 9.51118934 C615.56402571 9.51855691 611.9117984 9.51151469 608.25940752 9.50466561 C605.63160808 9.50696738 603.00380928 9.51014198 600.37601185 9.5141201 C594.64059923 9.52136497 588.90522421 9.52111122 583.16980982 9.51602578 C574.64128254 9.50848419 566.11278719 9.51231608 557.58426015 9.5184424 C542.35541708 9.52899388 527.12659075 9.52805315 511.89774607 9.52228457 C498.57103755 9.51726105 485.24433518 9.5159365 471.9176259 9.51832986 C471.03495073 9.51848263 470.15227556 9.5186354 469.24285266 9.5187928 C465.66013233 9.51941544 462.07741201 9.52005223 458.49469169 9.52071233 C424.85968098 9.52683561 391.22468097 9.52127503 357.58967192 9.51051853 C327.68184857 9.50102674 297.77404225 9.50187597 267.86621904 9.51144052 C234.29423352 9.52214088 200.72225745 9.52640142 167.15027046 9.52021599 C163.57393281 9.51957452 159.99759515 9.51894884 156.4212575 9.51832986 C155.54061849 9.5181717 154.65997948 9.51801355 153.75265444 9.5178506 C140.43162509 9.51557197 127.11060255 9.51824305 113.78957415 9.52328897 C98.64879583 9.52899546 83.50803693 9.52760358 68.36726105 9.51672748 C59.88488199 9.51083595 51.40254493 9.51049873 42.92016692 9.51801983 C36.60237705 9.52300566 30.28463726 9.51763494 23.96685356 9.50807068 C21.39892771 9.50582136 18.8309963 9.5070068 16.26307398 9.51182225 C12.79470532 9.51783143 9.3265718 9.51174013 5.85821581 9.50238061 C4.33400232 9.50940411 4.33400232 9.50940411 2.77899665 9.5165695 C1.86192775 9.51156246 0.94485886 9.50655542 0 9.50139666 C-1.19117673 9.50119338 -1.19117673 9.50119338 -2.40641764 9.50098599 C-4.3305583 9.25069833 -4.3305583 9.25069833 -6.3305583 7.25069833 C-6.5805583 4.75069833 -6.5805583 4.75069833 -6.3305583 2.25069833 C-3.90130085 -0.17855912 -3.32458424 0.00056735 0 0 Z " fill="#1974BA" transform="translate(875.3305583000183,363.7493016719818)"/>
<path d="M0 0 C0.91706889 -0.00500704 1.83413779 -0.01001407 2.77899665 -0.01517284 C3.79513897 -0.01049051 4.81128129 -0.00580817 5.85821581 -0.00098395 C7.47401961 -0.00534428 7.47401961 -0.00534428 9.12246591 -0.00979269 C12.77485769 -0.01716026 16.427085 -0.01011804 20.07947588 -0.00326896 C22.70727532 -0.00557072 25.33507412 -0.00874532 27.96287155 -0.01272345 C33.69828417 -0.01996832 39.43365919 -0.01971456 45.16907358 -0.01462913 C53.69760086 -0.00708753 62.22609621 -0.01091943 70.75462325 -0.01704574 C85.98346632 -0.02759723 101.21229265 -0.0266565 116.44113733 -0.02088792 C129.76784585 -0.0158644 143.09454822 -0.01453985 156.4212575 -0.0169332 C157.30393267 -0.01708597 158.18660784 -0.01723874 159.09603074 -0.01739614 C162.67875107 -0.01801878 166.26147139 -0.01865558 169.84419171 -0.01931567 C203.47920242 -0.02543895 237.11420243 -0.01987838 270.74921148 -0.00912188 C300.65703483 0.00036992 330.56484115 -0.00047931 360.47266436 -0.01004386 C394.04464988 -0.02074422 427.61662595 -0.02500476 461.18861294 -0.01881933 C464.76495059 -0.01817786 468.34128825 -0.01755218 471.9176259 -0.0169332 C472.79826491 -0.01677505 473.67890392 -0.01661689 474.58622896 -0.01645395 C487.90725831 -0.01417532 501.22828085 -0.01684639 514.54930925 -0.02189231 C529.69008757 -0.0275988 544.83084647 -0.02620693 559.97162235 -0.01533082 C568.45400141 -0.0094393 576.93633847 -0.00910208 585.41871648 -0.01662317 C591.73650635 -0.02160901 598.05424614 -0.01623828 604.37202984 -0.00667402 C606.93995569 -0.0044247 609.5078871 -0.00561015 612.07580942 -0.0104256 C615.54417808 -0.01643478 619.0123116 -0.01034347 622.48066759 -0.00098395 C624.00488108 -0.00800745 624.00488108 -0.00800745 625.55988675 -0.01517284 C626.47695565 -0.0101658 627.39402454 -0.00515877 628.3388834 0 C629.53006013 0.00020328 629.53006013 0.00020328 630.74530104 0.00041066 C632.6694417 0.25069833 632.6694417 0.25069833 634.6694417 2.25069833 C634.9194417 4.75069833 634.9194417 4.75069833 634.6694417 7.25069833 C632.24018425 9.67995578 631.66346764 9.50082931 628.3388834 9.50139666 C626.96328006 9.50890721 626.96328006 9.50890721 625.55988675 9.5165695 C624.54374443 9.51188716 623.52760211 9.50720483 622.48066759 9.50238061 C620.86486379 9.50674093 620.86486379 9.50674093 619.21641749 9.51118934 C615.56402571 9.51855691 611.9117984 9.51151469 608.25940752 9.50466561 C605.63160808 9.50696738 603.00380928 9.51014198 600.37601185 9.5141201 C594.64059923 9.52136497 588.90522421 9.52111122 583.16980982 9.51602578 C574.64128254 9.50848419 566.11278719 9.51231608 557.58426015 9.5184424 C542.35541708 9.52899388 527.12659075 9.52805315 511.89774607 9.52228457 C498.57103755 9.51726105 485.24433518 9.5159365 471.9176259 9.51832986 C471.03495073 9.51848263 470.15227556 9.5186354 469.24285266 9.5187928 C465.66013233 9.51941544 462.07741201 9.52005223 458.49469169 9.52071233 C424.85968098 9.52683561 391.22468097 9.52127503 357.58967192 9.51051853 C327.68184857 9.50102674 297.77404225 9.50187597 267.86621904 9.51144052 C234.29423352 9.52214088 200.72225745 9.52640142 167.15027046 9.52021599 C163.57393281 9.51957452 159.99759515 9.51894884 156.4212575 9.51832986 C155.54061849 9.5181717 154.65997948 9.51801355 153.75265444 9.5178506 C140.43162509 9.51557197 127.11060255 9.51824305 113.78957415 9.52328897 C98.64879583 9.52899546 83.50803693 9.52760358 68.36726105 9.51672748 C59.88488199 9.51083595 51.40254493 9.51049873 42.92016692 9.51801983 C36.60237705 9.52300566 30.28463726 9.51763494 23.96685356 9.50807068 C21.39892771 9.50582136 18.8309963 9.5070068 16.26307398 9.51182225 C12.79470532 9.51783143 9.3265718 9.51174013 5.85821581 9.50238061 C4.33400232 9.50940411 4.33400232 9.50940411 2.77899665 9.5165695 C1.86192775 9.51156246 0.94485886 9.50655542 0 9.50139666 C-1.19117673 9.50119338 -1.19117673 9.50119338 -2.40641764 9.50098599 C-4.3305583 9.25069833 -4.3305583 9.25069833 -6.3305583 7.25069833 C-6.5805583 4.75069833 -6.5805583 4.75069833 -6.3305583 2.25069833 C-3.90130085 -0.17855912 -3.32458424 0.00056735 0 0 Z " fill="#1974BA" transform="translate(875.3305583000183,326.7493016719818)"/>
<path d="M0 0 C24.95962981 14.68039765 42.36741132 34.14130049 50.61328125 62.50390625 C50.82855469 63.21546875 51.04382813 63.92703125 51.265625 64.66015625 C57.1793542 87.10642765 52.88366741 112.63017706 41.83203125 132.74609375 C30.91055604 151.16524838 13.79452524 169.10221621 -7.38671875 175.50390625 C-11.37365728 175.23129507 -13.01722397 174.77701108 -16.26171875 172.37890625 C-18.38671875 169.50390625 -18.38671875 169.50390625 -18.94921875 166.00390625 C-18.28458527 161.86840907 -17.23627629 160.52386922 -14.38671875 157.50390625 C-11.46875 155.73046875 -11.46875 155.73046875 -8.19921875 154.12890625 C-2.34709297 151.10782004 2.58562123 147.72674322 7.61328125 143.50390625 C8.20367187 143.06949219 8.7940625 142.63507813 9.40234375 142.1875 C22.78465434 131.95217112 29.89521923 113.85786314 33.15234375 97.85546875 C33.42136616 95.72634856 33.55370673 93.64858906 33.61328125 91.50390625 C33.66355469 90.7046875 33.71382813 89.90546875 33.765625 89.08203125 C34.54747263 67.9408713 26.31459913 48.30896129 12.15600586 32.85668945 C6.72341586 27.25750613 0.31774238 23.40130926 -6.38671875 19.50390625 C-8.30471596 18.38117618 -10.22154874 17.25645223 -12.13671875 16.12890625 C-12.9153125 15.68804687 -13.69390625 15.2471875 -14.49609375 14.79296875 C-16.38671875 13.50390625 -16.38671875 13.50390625 -18.38671875 10.50390625 C-18.85034357 6.33128288 -18.83612815 4.21676254 -16.57421875 0.62890625 C-11.69095273 -4.11483789 -5.67530055 -2.50708202 0 0 Z " fill="#1974B9" transform="translate(355.38671875,92.49609375)"/>
<path d="M0 0 C12.59150141 6.29575071 22.21895154 16.72629967 27 30 C31.46102255 45.23391743 30.83280771 60.7044866 23.4609375 74.98046875 C16.66815025 86.2242376 7.94026417 93.70534572 -4 99 C-7.58091803 99.83065142 -9.29865517 99.71638932 -13 99 C-15.50160818 97.12379387 -16.61945652 95.76108697 -18 93 C-18.536089 89.06868064 -18.21775851 87.35567223 -16.125 83.9375 C-13.77443232 81.3538732 -11.35490208 80.11258691 -8.1875 78.6875 C0.02562159 74.85634194 4.94629045 68.32056746 8.30859375 60.04296875 C11.60368031 50.30663954 10.47718288 41.17752752 6 32 C1.68631392 24.42154847 -4.53681399 20.56395792 -11.9375 16.3125 C-14 15 -14 15 -16 12 C-16.78993519 5.00343119 -16.78993519 5.00343119 -13.6875 1.0625 C-8.86388332 -2.63934536 -5.42269695 -2.06706765 0 0 Z " fill="#1973B9" transform="translate(341,130)"/>
<path d="M0 0 C2.13241121 4.08712148 2.46376515 7.36706625 1.5 11.875 C-1.71223307 18.94191274 -9.66105289 22.28351397 -16.46582031 25.11572266 C-25.98802791 28.66997921 -36.36510793 30.52552096 -46.5 30.875 C-47.95986328 30.93494141 -47.95986328 30.93494141 -49.44921875 30.99609375 C-58.21189598 31.18683064 -68.00954935 30.93105419 -75.5 25.875 C-78.67863944 22.27254196 -79.10653528 18.73561813 -78.890625 14.078125 C-78.2148139 10.26655039 -76.47567536 8.13827851 -73.5 5.875 C-56.81303768 -4.93360059 -16.64736509 -14.15026032 0 0 Z " fill="#1974BA" transform="translate(785.5,35.125)"/>
<path d="M0 0 C2.62527189 -0.05382106 5.24944713 -0.09358313 7.875 -0.125 C8.62136719 -0.14175781 9.36773438 -0.15851563 10.13671875 -0.17578125 C12.09194461 -0.1933959 14.04742021 -0.10320189 16 0 C16.66 0.66 17.32 1.32 18 2 C17.27876953 2.53560547 17.27876953 2.53560547 16.54296875 3.08203125 C14.31575162 5.85054672 14.48605989 8.18159023 14.3125 11.6875 C14.24675781 12.86699219 14.18101562 14.04648437 14.11328125 15.26171875 C14.07589844 16.16535156 14.03851562 17.06898438 14 18 C17.63 18 21.26 18 25 18 C24.9127395 15.74928094 24.80455885 13.49936612 24.6875 11.25 C24.62949219 9.99703125 24.57148437 8.7440625 24.51171875 7.453125 C24.22692581 3.64111344 24.22692581 3.64111344 21 0 C26.28 0 31.56 0 37 0 C37 1.32 37 2.64 37 4 C36.67 4.33 36.34 4.66 36 5 C35.87437188 7.41320199 35.81138453 9.79627041 35.796875 12.2109375 C35.78832489 13.29684677 35.78832489 13.29684677 35.77960205 14.4046936 C35.7701388 15.93970268 35.76361283 17.4747322 35.75976562 19.00976562 C35.7500684 21.35843425 35.71906271 23.70622481 35.6875 26.0546875 C35.68096931 27.54426562 35.6757191 29.03385002 35.671875 30.5234375 C35.6595282 31.22665131 35.6471814 31.92986511 35.63446045 32.65438843 C35.64286662 36.60223184 35.64286662 36.60223184 37.52050781 39.96728516 C38.00874023 40.30808105 38.49697266 40.64887695 39 41 C42.14375568 38.984772 43.79762337 37.89341876 44.640625 34.171875 C45.27072818 28.40932236 45.26438156 22.6027521 45.3125 16.8125 C45.34150391 15.63751953 45.37050781 14.46253906 45.40039062 13.25195312 C45.41295898 11.5590918 45.41295898 11.5590918 45.42578125 9.83203125 C45.44036377 8.80827393 45.45494629 7.7845166 45.4699707 6.72973633 C45.16646842 3.3972965 45.16646842 3.3972965 41 0 C47.6 0 54.2 0 61 0 C60.34 1.98 59.68 3.96 59 6 C59.50995891 8.28782436 59.50995891 8.28782436 60.7734375 10.3046875 C61.1859375 11.05234375 61.5984375 11.8 62.0234375 12.5703125 C62.46945312 13.33085937 62.91546875 14.09140625 63.375 14.875 C63.81328125 15.65875 64.2515625 16.4425 64.703125 17.25 C65.78447006 19.17761512 66.88333143 21.09270212 68 23 C68.08132187 20.43685501 68.14064175 17.87631582 68.1875 15.3125 C68.21263672 14.59126953 68.23777344 13.87003906 68.26367188 13.12695312 C68.32689443 8.51170654 67.81857806 5.67848323 65 2 C64.01 1.01 64.01 1.01 63 0 C68.28 0 73.56 0 79 0 C78.67 0.66 78.34 1.32 78 2 C78.66 2 79.32 2 80 2 C80 2.66 80 3.32 80 4 C79.01 4.66 78.02 5.32 77 6 C75.75526468 9.73420597 75.76790215 13.27365238 75.68359375 17.16796875 C75.6524221 18.36018791 75.6524221 18.36018791 75.62062073 19.57649231 C75.55527913 22.11340763 75.49631192 24.65042573 75.4375 27.1875 C75.39430014 28.90821372 75.35068537 30.62891708 75.30664062 32.34960938 C75.19961352 36.56630113 75.09830276 40.7830962 75 45 C72.36 45 69.72 45 67 45 C66.72816895 44.45182617 66.45633789 43.90365234 66.17626953 43.33886719 C64.86859052 40.73870843 63.52695444 38.15799786 62.1796875 35.578125 C61.64472656 34.55332031 61.10976563 33.52851563 60.55859375 32.47265625 C59.72521484 30.87744141 59.72521484 30.87744141 58.875 29.25 C58.31167969 28.17105469 57.74835937 27.09210938 57.16796875 25.98046875 C55.7789536 23.32015159 54.38961934 20.6600016 53 18 C52.91879249 20.89640118 52.85940579 23.79050912 52.8125 26.6875 C52.78736328 27.50412109 52.76222656 28.32074219 52.73632812 29.16210938 C52.67746811 34.00825025 52.93186206 37.03073064 56 41 C56.99 42.32 57.98 43.64 59 45 C46.79 45 34.58 45 22 45 C21.67 43.68 21.34 42.36 21 41 C21.46019531 40.56042969 21.92039062 40.12085938 22.39453125 39.66796875 C24.83245389 37.13513914 24.51733025 34.74992895 24.6875 31.3125 C24.75324219 30.13300781 24.81898438 28.95351563 24.88671875 27.73828125 C24.92410156 26.83464844 24.96148438 25.93101562 25 25 C21.37 25 17.74 25 14 25 C14.03343873 27.02152306 14.10323665 29.0424571 14.1875 31.0625 C14.23970703 32.75052734 14.23970703 32.75052734 14.29296875 34.47265625 C14.93327324 38.91785731 14.93327324 38.91785731 20 45 C13.73 45 7.46 45 1 45 C0.67 43.68 0.34 42.36 0 41 C0.46019531 40.56042969 0.92039062 40.12085938 1.39453125 39.66796875 C3.83245389 37.13513914 3.51733025 34.74992895 3.6875 31.3125 C3.75324219 30.13300781 3.81898438 28.95351563 3.88671875 27.73828125 C3.92410156 26.83464844 3.96148438 25.93101562 4 25 C2.35 25.33 0.7 25.66 -1 26 C-1.33 25.01 -1.66 24.02 -2 23 C-1.175 22.46375 -0.35 21.9275 0.5 21.375 C3.62391287 18.3132104 3.42972262 15.15853492 3.5 10.9375 C3.45986338 6.23649826 3.27209495 3.48965446 0 0 Z M56 6 C57 8 57 8 57 8 Z M73 6 C74 10 74 10 74 10 Z M49 10 C49 17.59 49 25.18 49 33 C49.33 33 49.66 33 50 33 C50 25.41 50 17.82 50 10 C49.67 10 49.34 10 49 10 Z M16 23 C16 23.33 16 23.66 16 24 C18.31 24 20.62 24 23 24 C23 23.67 23 23.34 23 23 C20.69 23 18.38 23 16 23 Z M39 42 C39 42.33 39 42.66 39 43 C43.95 43 48.9 43 54 43 C54 42.67 54 42.34 54 42 C49.05 42 44.1 42 39 42 Z " fill="#1873B8" transform="translate(580,328)"/>
<path d="M0 0 C5.41554431 0.78519586 5.41554431 0.78519586 10.875 1.0625 C9.46207905 5.8899799 7.44525846 9.7787359 4.875 14.0625 C4.648125 13.464375 4.42125 12.86625 4.1875 12.25 C2.46693332 9.38238887 0.90968112 8.44190051 -2.125 7.0625 C-5.16753508 6.47904524 -5.16753508 6.47904524 -8.125 7.0625 C-10.42775556 8.9295991 -11.80323871 10.41897741 -13.125 13.0625 C-13.27644564 15.66037529 -13.35636981 18.21358821 -13.375 20.8125 C-13.395625 21.51632812 -13.41625 22.22015625 -13.4375 22.9453125 C-13.47916687 28.54950675 -12.18243401 32.3595965 -8.73046875 36.89453125 C-6.61982719 38.43001015 -5.02372366 38.56259249 -2.4375 38.75 C-1.014375 38.853125 0.40875 38.95625 1.875 39.0625 C1.875 33.7825 1.875 28.5025 1.875 23.0625 C-2.415 23.0625 -6.705 23.0625 -11.125 23.0625 C-13.00843932 19.29562136 -13.34557835 18.03291037 -13.125 14.0625 C-11.475 13.7325 -9.825 13.4025 -8.125 13.0625 C-8.125 14.3825 -8.125 15.7025 -8.125 17.0625 C-0.865 17.0625 6.395 17.0625 13.875 17.0625 C14.37 19.0425 14.37 19.0425 14.875 21.0625 C14.215 21.7225 13.555 22.3825 12.875 23.0625 C12.62156612 25.55263521 12.50474938 27.88395158 12.5 30.375 C12.45746094 32.34919922 12.45746094 32.34919922 12.4140625 34.36328125 C12.93532483 38.5466323 14.07224341 40.02156449 16.875 43.0625 C16.875 43.7225 16.875 44.3825 16.875 45.0625 C-11.09201109 46.72974768 -11.09201109 46.72974768 -18.1875 40.875 C-24.94824783 33.71027075 -26.43705468 27.626118 -26.34375 18.0390625 C-25.89998693 12.00071506 -23.35192777 7.41019713 -19.125 3.0625 C-12.53518635 -0.86334643 -7.45657993 -1.09336008 0 0 Z M-8.125 3.0625 C-4.125 4.0625 -4.125 4.0625 -4.125 4.0625 Z M-15.125 8.0625 C-14.125 10.0625 -14.125 10.0625 -14.125 10.0625 Z M-16.125 10.0625 C-15.125 13.0625 -15.125 13.0625 -15.125 13.0625 Z M-17.125 13.0625 C-17.32172365 14.79064161 -17.50696799 16.52009197 -17.6875 18.25 C-17.79191406 19.21292969 -17.89632812 20.17585938 -18.00390625 21.16796875 C-18.12258751 24.00483377 -17.80265639 26.31673671 -17.125 29.0625 C-16.795 29.0625 -16.465 29.0625 -16.125 29.0625 C-16.125 23.7825 -16.125 18.5025 -16.125 13.0625 C-16.455 13.0625 -16.785 13.0625 -17.125 13.0625 Z M8.875 23.0625 C8.875 28.0125 8.875 32.9625 8.875 38.0625 C9.205 38.0625 9.535 38.0625 9.875 38.0625 C9.875 33.1125 9.875 28.1625 9.875 23.0625 C9.545 23.0625 9.215 23.0625 8.875 23.0625 Z M-16.125 29.0625 C-15.125 32.0625 -15.125 32.0625 -15.125 32.0625 Z M-11.125 42.0625 C-11.125 42.3925 -11.125 42.7225 -11.125 43.0625 C-3.205 43.0625 4.715 43.0625 12.875 43.0625 C12.875 42.7325 12.875 42.4025 12.875 42.0625 C4.955 42.0625 -2.965 42.0625 -11.125 42.0625 Z " fill="#1872B8" transform="translate(807.125,327.9375)"/>
<path d="M0 0 C5.09029944 -0.0740421 10.18028692 -0.12855008 15.27099609 -0.16479492 C17.00347349 -0.1799009 18.73591254 -0.20038694 20.46826172 -0.22631836 C22.95549978 -0.26262321 25.44223326 -0.27970765 27.9296875 -0.29296875 C29.09538773 -0.31619453 29.09538773 -0.31619453 30.28463745 -0.33988953 C32.46826172 -0.34057617 32.46826172 -0.34057617 36 0 C36.66 0.99 37.32 1.98 38 3 C36.02 5.97 34.04 8.94 32 12 C31.505 11.01 31.505 11.01 31 10 C26.33759371 7.59359676 21.10755976 6.95341116 16 6 C16 9.63 16 13.26 16 17 C20.82442184 15.73053486 20.82442184 15.73053486 24 12 C25.32 12 26.64 12 28 12 C28 17.28 28 22.56 28 28 C24 26 24 26 23 25 C20.67182036 24.63239269 18.3381615 24.29758419 16 24 C16 28.62 16 33.24 16 38 C22.25620043 37.49934973 22.25620043 37.49934973 27.484375 34.53125 C28.3874652 33.05851828 29.20088317 31.5316406 30 30 C30.66 30 31.32 30 32 30 C32.495 30.99 32.495 30.99 33 32 C33.99 32.33 34.98 32.66 36 33 C37.40113616 34.95309888 38.73339467 36.95708818 40 39 C40.66 39.99 41.32 40.98 42 42 C41.34 42.99 40.68 43.98 40 45 C37.16272675 45.26667539 34.54616955 45.34791234 31.7109375 45.29296875 C30.89251373 45.28872391 30.07408997 45.28447906 29.23086548 45.28010559 C26.61191164 45.26328679 23.99372198 45.22562974 21.375 45.1875 C19.6015736 45.17245726 17.82813516 45.15876814 16.0546875 45.14648438 C11.7028297 45.11337292 7.35154449 45.06156952 3 45 C3 44.34 3 43.68 3 43 C14.88 43 26.76 43 39 43 C37.81089749 41.58273764 37.81089749 41.58273764 34.39819336 41.88647461 C32.79540144 41.88663375 31.1926044 41.89232937 29.58984375 41.90234375 C28.32679161 41.90446617 28.32679161 41.90446617 27.03822327 41.90663147 C24.33794665 41.91224737 21.63775172 41.92480252 18.9375 41.9375 C17.11132932 41.94251295 15.28515734 41.94707621 13.45898438 41.95117188 C8.97262458 41.96222196 4.48632616 41.97949721 0 42 C0.64743164 41.4112207 1.29486328 40.82244141 1.96191406 40.21582031 C4.79011494 37.14098189 4.59762554 34.86411052 4.75 30.75 C4.80671875 29.48671875 4.8634375 28.2234375 4.921875 26.921875 C4.94765625 25.95765625 4.9734375 24.9934375 5 24 C3.35 24.33 1.7 24.66 0 25 C-0.625 22.625 -0.625 22.625 -1 20 C-0.34 19.34 0.32 18.68 1 18 C2.32 18 3.64 18 5 18 C4.93981983 15.74926172 4.85098794 13.49927675 4.75 11.25 C4.70359375 9.99703125 4.6571875 8.7440625 4.609375 7.453125 C3.912521 3.50428568 2.87800863 2.61728311 0 0 Z M13 3 C13 7.62 13 12.24 13 17 C13.33 17 13.66 17 14 17 C14 12.71 14 8.42 14 4 C16.64 4 19.28 4 22 4 C22 3.67 22 3.34 22 3 C19.03 3 16.06 3 13 3 Z M13 21 C13 26.61 13 32.22 13 38 C13.33 38 13.66 38 14 38 C14 32.72 14 27.44 14 22 C16.31 22 18.62 22 21 22 C21 21.67 21 21.34 21 21 C18.36 21 15.72 21 13 21 Z " fill="#1872B8" transform="translate(499,328)"/>
<path d="M0 0 C0.70125 0.268125 1.4025 0.53625 2.125 0.8125 C6.34835908 3.48729408 8.41253049 7.39767243 10 12 C11.755882 22.26624559 10.86564291 30.28533054 5 39 C-0.43430676 44.03667456 -4.94452855 44.36440298 -12.12890625 44.26953125 C-16.01669566 43.9045551 -17.43321224 42.93347172 -20 40 C-20.58523438 39.41734375 -21.17046875 38.8346875 -21.7734375 38.234375 C-27.40560076 32.39531595 -28.95303102 27.52612053 -29.3125 19.5625 C-29.11984022 13.67116662 -28.14336186 8.43005358 -24.16015625 3.9140625 C-16.88459659 -2.72471633 -9.20933069 -3.76745346 0 0 Z M-13 2 C-13 2.33 -13 2.66 -13 3 C-11.35 3 -9.7 3 -8 3 C-8 2.67 -8 2.34 -8 2 C-9.65 2 -11.3 2 -13 2 Z M-14.375 6.3125 C-18.70932186 13.48080153 -18.56169393 21.97742714 -17 30 C-15.62940031 33.39670357 -14.5669039 35.4330961 -12 38 C-8.98188678 37.80735448 -6.77805043 37.52796279 -4.25 35.8125 C-0.77953582 30.78032693 -0.66183313 25.31521383 -0.6875 19.4375 C-0.67138672 18.69564453 -0.65527344 17.95378906 -0.63867188 17.18945312 C-0.63466185 12.6861931 -0.96894119 9.57966673 -4 6 C-7.60548533 4.39344904 -10.94173693 4.41517041 -14.375 6.3125 Z M-18 6 C-17 8 -17 8 -17 8 Z M-19 8 C-18 11 -18 11 -18 11 Z M6 9 C7 12 7 12 7 12 Z M-20 11 C-20.33 15.29 -20.66 19.58 -21 24 C-20.67 24 -20.34 24 -20 24 C-18.89771304 19.59085217 -18.92345464 15.51617599 -19 11 C-19.33 11 -19.66 11 -20 11 Z M7 12 C7 13.98 7 15.96 7 18 C7.33 18 7.66 18 8 18 C8 16.02 8 14.04 8 12 C7.67 12 7.34 12 7 12 Z M8 18 C7.67 21.63 7.34 25.26 7 29 C9.10814567 24.78370866 9.17700355 22.60209225 9 18 C8.67 18 8.34 18 8 18 Z M-20 24 C-20 25.98 -20 27.96 -20 30 C-19.67 30 -19.34 30 -19 30 C-19 28.02 -19 26.04 -19 24 C-19.33 24 -19.66 24 -20 24 Z M6 29 C7 32 7 32 7 32 Z M-19 31 C-18 33 -18 33 -18 33 Z M5 32 C6 34 6 34 6 34 Z " fill="#1872B8" transform="translate(690,329)"/>
<path d="M0 0 C0.70125 0.268125 1.4025 0.53625 2.125 0.8125 C7.27316683 4.07300566 8.9468093 8.82480711 10.4609375 14.45703125 C12.09721187 22.17597775 10.95643083 29.99922871 6.8984375 36.86328125 C4.112564 40.4849168 1.30965073 42.58956885 -3 44 C-8.27457694 44.58049012 -13.12763319 45.01759066 -17.875 42.4375 C-18.57625 41.633125 -19.2775 40.82875 -20 40 C-20.51175781 39.44441406 -21.02351562 38.88882813 -21.55078125 38.31640625 C-27.87456359 31.29836619 -29.04367831 25.47819247 -29 16 C-28.17051413 8.85062177 -25.55966237 4.80126495 -20.03515625 0.27734375 C-13.93511483 -3.55128109 -6.38468966 -2.6119185 0 0 Z M-13 2 C-13 2.33 -13 2.66 -13 3 C-11.02 3 -9.04 3 -7 3 C-7 2.67 -7 2.34 -7 2 C-8.98 2 -10.96 2 -13 2 Z M-17 5 C-20.61752739 10.66221678 -20.69040043 16.40232633 -21 23 C-18.41282501 20.41282501 -18.45944472 18.7128217 -17.9375 15.125 C-17.4278321 11.69632506 -16.91330192 8.34607961 -16 5 C-16.33 5 -16.66 5 -17 5 Z M-14.109375 6.63671875 C-18.06095343 11.57619179 -18.24885668 18.76049728 -17.77734375 24.8984375 C-16.9844978 29.33570981 -16.01719535 33.53581274 -13 37 C-10.65904469 38.25153259 -10.65904469 38.25153259 -8 38 C-3.98534083 35.57253167 -2.33182881 33.4354656 -1 29 C-0.69458762 25.99550119 -0.67525147 23.01803694 -0.6875 20 C-0.67138672 19.2059375 -0.65527344 18.411875 -0.63867188 17.59375 C-0.63477018 12.91171986 -0.95354027 9.79510312 -4 6 C-7.62785138 4.18607431 -10.87331966 4.12577951 -14.109375 6.63671875 Z M5 7 C6 9 6 9 6 9 Z M6 9 C7 11 7 11 7 11 Z M7 12 C7 13.65 7 15.3 7 17 C7.33 17 7.66 17 8 17 C8 15.35 8 13.7 8 12 C7.67 12 7.34 12 7 12 Z M8 17 C7.67 21.29 7.34 25.58 7 30 C8.87184371 26.25631258 9.23999767 25.1599209 9.125 21.25 C9.10695313 20.45078125 9.08890625 19.6515625 9.0703125 18.828125 C9.04710937 18.22484375 9.02390625 17.6215625 9 17 C8.67 17 8.34 17 8 17 Z M-20 23 C-20 25.31 -20 27.62 -20 30 C-19.67 30 -19.34 30 -19 30 C-19 27.69 -19 25.38 -19 23 C-19.33 23 -19.66 23 -20 23 Z M6 30 C7 32 7 32 7 32 Z M5 32 C6 34 6 34 6 34 Z M3 35 C4 37 4 37 4 37 Z " fill="#1771B6" transform="translate(768,329)"/>
<path d="M0 0 C0.671875 2.30078125 0.671875 2.30078125 1 5 C-0.046875 6.60546875 -0.046875 6.60546875 -1.75 8.1875 C-7.56794815 14.28639535 -11.49574675 21.74967918 -15.75366211 28.96972656 C-16.85242025 30.75959389 -18.06706742 32.47719878 -19.296875 34.1796875 C-22.1539314 38.91086805 -21.8866809 43.65060284 -21 49 C-19.591072 51.54484573 -18.13995222 52.96704539 -16 55 C-16 55.66 -16 56.32 -16 57 C-22.93 57 -29.86 57 -37 57 C-35 52 -35 52 -33 50 C-31.17897429 41.02494472 -32.91442261 34.89508875 -37.75 27.4375 C-41.4063198 21.9343792 -45.28030052 16.6422591 -50 12 C-47.04142591 11.94620774 -44.08382279 11.90642907 -41.125 11.875 C-40.28324219 11.85824219 -39.44148437 11.84148437 -38.57421875 11.82421875 C-37.76855469 11.81777344 -36.96289062 11.81132812 -36.1328125 11.8046875 C-35.01737061 11.78897705 -35.01737061 11.78897705 -33.87939453 11.77294922 C-32 12 -32 12 -30 14 C-30.99 15.485 -30.99 15.485 -32 17 C-29.69 20.3 -27.38 23.6 -25 27 C-21.98811599 23.98811599 -20.23989562 22.10623387 -18.25 18.5625 C-17.82203125 17.82128906 -17.3940625 17.08007812 -16.953125 16.31640625 C-15.86341623 13.66805666 -15.83789561 11.84132971 -16 9 C-16 7.68 -16 6.36 -16 5 C-13.70967689 4.16280617 -11.41789043 3.3301071 -9.125 2.5 C-8.14853516 2.14228516 -8.14853516 2.14228516 -7.15234375 1.77734375 C-2.2265625 0 -2.2265625 0 0 0 Z M-24 35 C-24 39.95 -24 44.9 -24 50 C-23.67 50 -23.34 50 -23 50 C-23 45.05 -23 40.1 -23 35 C-23.33 35 -23.66 35 -24 35 Z " fill="#1872B8" transform="translate(873,316)"/>
<path d="M0 0 C4.18273568 0.93297547 7.85208438 1.24827894 12.125 1.0625 C12.62 2.0525 12.62 2.0525 13.125 3.0625 C13.785 3.0625 14.445 3.0625 15.125 3.0625 C13.43826082 7.56047113 11.30826108 11.79136302 9.125 16.0625 C8.465 16.0625 7.805 16.0625 7.125 16.0625 C7.125 15.4025 7.125 14.7425 7.125 14.0625 C6.465 14.0625 5.805 14.0625 5.125 14.0625 C4.8775 13.27875 4.63 12.495 4.375 11.6875 C3.35712253 9.00996661 3.35712253 9.00996661 1.3125 7.75 C-1.35676756 6.91108734 -3.10083909 6.56457368 -5.875 7.0625 C-10.5025863 13.01225381 -10.43211538 19.82000004 -9.875 27.0625 C-8.78860234 32.07491402 -7.52740522 35.46124891 -3.875 39.0625 C-3.875 39.7225 -3.875 40.3825 -3.875 41.0625 C2.17121 38.8932984 2.17121 38.8932984 6.125 34.0625 C6.84851427 32.08235568 7.52765389 30.08428685 8.125 28.0625 C9.775 28.3925 11.425 28.7225 13.125 29.0625 C14.62118008 33.55104023 13.16301712 36.89880912 11.125 41.0625 C8.56131104 44.03833514 5.8777787 45.81157377 2.125 47.0625 C-3.72959927 47.45280662 -7.67051582 47.09056352 -12.875 44.0625 C-19.35526932 38.09591057 -22.05570187 32.20367712 -22.83203125 23.48828125 C-22.96331597 16.0766621 -21.19885482 10.4008058 -16.453125 4.6875 C-11.68884613 -0.2182921 -6.56201065 -1.6038141 0 0 Z M11.125 4.0625 C12.125 6.0625 12.125 6.0625 12.125 6.0625 Z M-11.875 8.0625 C-13.70954621 12.75806469 -14.14501705 16.72071572 -14.125 21.75 C-14.13015625 23.05324219 -14.1353125 24.35648437 -14.140625 25.69921875 C-14.13959118 29.19370427 -14.13959118 29.19370427 -11.875 32.0625 C-11.88660156 30.91652344 -11.89820313 29.77054687 -11.91015625 28.58984375 C-11.91954242 27.05989748 -11.92864173 25.52994942 -11.9375 24 C-11.94587891 23.24783203 -11.95425781 22.49566406 -11.96289062 21.72070312 C-11.98308341 17.05616882 -11.65095959 12.66326827 -10.875 8.0625 C-11.205 8.0625 -11.535 8.0625 -11.875 8.0625 Z M-11.875 32.0625 C-10.875 35.0625 -10.875 35.0625 -10.875 35.0625 Z M10.125 34.0625 C11.125 36.0625 11.125 36.0625 11.125 36.0625 Z M-7.875 44.0625 C-7.875 44.3925 -7.875 44.7225 -7.875 45.0625 C-4.575 45.0625 -1.275 45.0625 2.125 45.0625 C2.125 44.7325 2.125 44.4025 2.125 44.0625 C-1.175 44.0625 -4.475 44.0625 -7.875 44.0625 Z " fill="#1871B7" transform="translate(562.875,326.9375)"/>
<path d="M0 0 C5.64165361 -0.07410727 11.28302447 -0.12858167 16.92504883 -0.16479492 C18.84469538 -0.1798898 20.7643074 -0.20036773 22.68383789 -0.22631836 C25.44165564 -0.26267109 28.1990178 -0.27971912 30.95703125 -0.29296875 C31.81649857 -0.30845261 32.67596588 -0.32393646 33.56147766 -0.33988953 C34.36208115 -0.34011612 35.16268463 -0.34034271 35.98754883 -0.34057617 C37.04344963 -0.35056892 37.04344963 -0.35056892 38.12068176 -0.36076355 C40 0 40 0 43 3 C41.35 5.97 39.7 8.94 38 12 C34 10 34 10 33 8 C30.6859378 7.26924352 28.35171131 6.59861742 26 6 C26.33 6.99 26.66 7.98 27 9 C27.10466726 11.21314501 27.15515586 13.42900859 27.17578125 15.64453125 C27.19962891 16.96130859 27.22347656 18.27808594 27.24804688 19.63476562 C27.28308374 21.72154152 27.31246932 23.80774179 27.32592773 25.89477539 C27.34149765 27.91622907 27.38175883 29.93602211 27.42578125 31.95703125 C27.44036377 33.16335205 27.45494629 34.36967285 27.4699707 35.61254883 C27.86881078 39.71193254 27.86881078 39.71193254 32 45 C26.06 45 20.12 45 14 45 C13.34 43.68 12.68 42.36 12 41 C13.375 39.5 13.375 39.5 15 38 C15.66 38 16.32 38 17 38 C17 27.44 17 16.88 17 6 C14.69 6.33 12.38 6.66 10 7 C9.67 8.65 9.34 10.3 9 12 C5.77553449 11.06955722 4.33696793 10.58896973 2.63671875 7.6171875 C2.32347656 6.71226562 2.01023437 5.80734375 1.6875 4.875 C1.36136719 3.96492188 1.03523438 3.05484375 0.69921875 2.1171875 C0.46847656 1.41851562 0.23773438 0.71984375 0 0 Z M24 3 C24 14.55 24 26.1 24 38 C24.33 38 24.66 38 25 38 C25 26.78 25 15.56 25 4 C25.99 3.67 26.98 3.34 28 3 C26.68 3 25.36 3 24 3 Z M7 6 C8 8 8 8 8 8 Z M36 8 C37 10 37 10 37 10 Z " fill="#1973B9" transform="translate(457,328)"/>
<path d="M0 0 C5.28 0 10.56 0 16 0 C16 1.32 16 2.64 16 4 C15.67 4.33 15.34 4.66 15 5 C14.84011509 7.51880517 14.74065775 10.01342266 14.68359375 12.53515625 C14.66281265 13.28840683 14.64203156 14.04165741 14.62062073 14.81773376 C14.55504575 17.2325599 14.49620379 19.64749798 14.4375 22.0625 C14.3943223 23.69597529 14.35070827 25.3294391 14.30664062 26.96289062 C14.19935638 30.97514464 14.09811179 34.98751164 14 39 C15.28132812 38.69707031 16.56265625 38.39414062 17.8828125 38.08203125 C18.60355957 37.9116333 19.32430664 37.74123535 20.06689453 37.56567383 C22.49701729 36.85456061 23.5926457 36.11103145 25 34 C26.19027984 31.40084462 26.19027984 31.40084462 27 29 C30.49677642 30.13848535 32.54720365 31.27341981 34.51171875 34.42578125 C35.74570289 36.92557146 36.91182228 39.43363395 38 42 C37.34 42.99 36.68 43.98 36 45 C33.30459685 45.26686213 30.84152536 45.34818073 28.1484375 45.29296875 C27.37440582 45.28872391 26.60037415 45.28447906 25.80288696 45.28010559 C23.32657323 45.26328998 20.85106842 45.22563395 18.375 45.1875 C16.69792841 45.17245682 15.02084408 45.15876778 13.34375 45.14648438 C9.22885419 45.11337721 5.11456431 45.06157637 1 45 C1 44.34 1 43.68 1 43 C12.22 42.67 23.44 42.34 35 42 C34.67 42 34.34 42 34 42 C22.66666667 42 11.33333333 42 0 42 C0.48678223 41.49855469 0.97356445 40.99710937 1.47509766 40.48046875 C3.53239062 37.13399157 3.43100487 34.12293637 3.3984375 30.3125 C3.40130768 29.57298096 3.40417786 28.83346191 3.40713501 28.0715332 C3.40917203 26.51154818 3.40366745 24.9515374 3.39111328 23.39160156 C3.3750531 21.00788092 3.39097279 18.6258556 3.41015625 16.2421875 C3.40817375 14.7239546 3.40432994 13.20572276 3.3984375 11.6875 C3.40451019 10.97698486 3.41058289 10.26646973 3.4168396 9.53442383 C3.35165706 4.93346706 2.92532395 3.90043194 0 0 Z M11 5 C11 16.22 11 27.44 11 39 C11.33 39 11.66 39 12 39 C12 27.78 12 16.56 12 5 C11.67 5 11.34 5 11 5 Z M30 33 C31 35 31 35 31 35 Z M31 35 C32 37 32 37 32 37 Z " fill="#1974BA" transform="translate(703,328)"/>
<path d="M0 0 C4.37592276 2.95670457 6.68253083 5.92092919 8 11 C9.70020752 21.21529645 8.98196599 29.35938246 3 38 C1.0703978 39.60327242 -0.80485063 40.75275604 -3 42 C-2.04983937 38.28573571 -1.28009622 36.27309382 1.5 33.5625 C5.40739377 29.55742139 6.00290989 26.30462914 5.99609375 20.90625 C5.61481926 13.8323914 5.12056955 7.58287615 0.3125 2.0625 C-0.120625 1.711875 -0.55375 1.36125 -1 1 C-0.67 0.67 -0.34 0.34 0 0 Z " fill="#1467B0" transform="translate(692,330)"/>
<path d="M0 0 C-2.76223278 2.76223278 -5.20706617 2.57856291 -9 3 C-10.75380558 6.91290237 -11.52564918 10.5742335 -12.125 14.8125 C-12.29257812 15.97394531 -12.46015625 17.13539063 -12.6328125 18.33203125 C-12.75398437 19.21246094 -12.87515625 20.09289062 -13 21 C-13.66 20.67 -14.32 20.34 -15 20 C-14.39006747 5.82432679 -14.39006747 5.82432679 -11 1 C-6.72516585 -1.84988944 -4.41972556 -2.94648371 0 0 Z " fill="#1468AB" transform="translate(685,333)"/>
<path d="M0 0 C0.99 0 1.98 0 3 0 C2.60039063 0.83789062 2.20078125 1.67578125 1.7890625 2.5390625 C0.75899285 7.05709079 2.19393335 9.53407748 4.375 13.375 C4.71789062 14.01566406 5.06078125 14.65632813 5.4140625 15.31640625 C6.25815118 16.88734906 7.12670273 18.44510486 8 20 C6.1640625 19.80078125 6.1640625 19.80078125 4 19 C2.5859375 16.85546875 2.5859375 16.85546875 1.375 14.1875 C0.97023438 13.31480469 0.56546875 12.44210937 0.1484375 11.54296875 C-0.23054687 10.70378906 -0.60953125 9.86460937 -1 9 C-1.37898437 8.29488281 -1.75796875 7.58976562 -2.1484375 6.86328125 C-3 5 -3 5 -3 2 C-2.01 2 -1.02 2 0 2 C0 1.34 0 0.68 0 0 Z " fill="#1261A5" transform="translate(638,328)"/>
<path d="M0 0 C0.598125 0.350625 1.19625 0.70125 1.8125 1.0625 C1.1525 1.7225 0.4925 2.3825 -0.1875 3.0625 C-2.3125 2.6875 -2.3125 2.6875 -4.1875 2.0625 C-3.8575 3.0525 -3.5275 4.0425 -3.1875 5.0625 C-3.1068378 6.54373547 -3.07988807 8.02832204 -3.08984375 9.51171875 C-3.09306641 10.35927734 -3.09628906 11.20683594 -3.09960938 12.08007812 C-3.10798828 12.96115234 -3.11636719 13.84222656 -3.125 14.75 C-3.12951172 15.64267578 -3.13402344 16.53535156 -3.13867188 17.45507812 C-3.15045017 19.65761987 -3.16689836 21.86002599 -3.1875 24.0625 C-5.1875 22.0625 -5.1875 22.0625 -5.41455078 19.81591797 C-5.40407715 18.90471191 -5.39360352 17.99350586 -5.3828125 17.0546875 C-5.37636719 16.06855469 -5.36992187 15.08242188 -5.36328125 14.06640625 C-5.34652344 13.03386719 -5.32976562 12.00132812 -5.3125 10.9375 C-5.30347656 9.89722656 -5.29445313 8.85695313 -5.28515625 7.78515625 C-5.26153747 5.21070908 -5.22860149 2.63671788 -5.1875 0.0625 C-2.1875 -0.9375 -2.1875 -0.9375 0 0 Z " fill="#1369AD" transform="translate(487.1875,331.9375)"/>
<path d="M0 0 C1.2391082 4.11422645 1.03226649 7.9875246 0.9375 12.24609375 C0.99893447 14.95304989 1.38853767 17.36784575 2 20 C1.01 20 0.02 20 -1 20 C-1.86603643 16.24486603 -2.16336696 12.72663242 -2.1875 8.875 C-2.20167969 7.84117187 -2.21585938 6.80734375 -2.23046875 5.7421875 C-2 3 -2 3 0 0 Z " fill="#1567B0" transform="translate(552,339)"/>
<path d="M0 0 C3 1 3 1 4.38671875 3.28515625 C4.81597656 4.20167969 5.24523437 5.11820312 5.6875 6.0625 C6.34298828 7.44115234 6.34298828 7.44115234 7.01171875 8.84765625 C7.33785156 9.55792969 7.66398438 10.26820313 8 11 C5.53199953 9.84826645 3.95216435 8.95216435 2 7 C1.835 6.154375 1.67 5.30875 1.5 4.4375 C1.335 3.633125 1.17 2.82875 1 2 C0.34 1.67 -0.32 1.34 -1 1 C-0.67 0.67 -0.34 0.34 0 0 Z " fill="#1264AB" transform="translate(733,359)"/>
<path d="M0 0 C1 3 1 3 0.00390625 5.48046875 C-0.47175781 6.37378906 -0.94742188 7.26710938 -1.4375 8.1875 C-1.91058594 9.08855469 -2.38367188 9.98960937 -2.87109375 10.91796875 C-3.24363281 11.60503906 -3.61617187 12.29210937 -4 13 C-4.66 12.34 -5.32 11.68 -6 11 C-4.02 7.37 -2.04 3.74 0 0 Z " fill="#1673B8" transform="translate(819,330)"/>
<path d="M0 0 C0.33 0.66 0.66 1.32 1 2 C-2.625 7.875 -2.625 7.875 -6 9 C-5.690625 8.236875 -5.38125 7.47375 -5.0625 6.6875 C-4.32106407 4.81210323 -3.63771783 2.91315348 -3 1 C-2.01 0.67 -1.02 0.34 0 0 Z " fill="#1363B0" transform="translate(865,329)"/>
<path d="M0 0 C0 0.99 0 1.98 0 3 C-0.99 3.33 -1.98 3.66 -3 4 C-3.33 5.65 -3.66 7.3 -4 9 C-4.66 9 -5.32 9 -6 9 C-5.8125 6.1875 -5.8125 6.1875 -5 3 C-2.4375 1.125 -2.4375 1.125 0 0 Z " fill="#136DB4" transform="translate(470,331)"/>
<path d="M0 0 C4.8 3.32307692 4.8 3.32307692 5.8125 6.75 C5.874375 7.4925 5.93625 8.235 6 9 C3 7 3 7 2 4 C0.50014391 2.33289654 0.50014391 2.33289654 -1 1 C-0.67 0.67 -0.34 0.34 0 0 Z " fill="#1365A3" transform="translate(692,330)"/>
<path d="M0 0 C0.66 0.66 1.32 1.32 2 2 C-0.97 4.475 -0.97 4.475 -4 7 C-4.33 6.34 -4.66 5.68 -5 5 C-3.35 3.35 -1.7 1.7 0 0 Z " fill="#156BAC" transform="translate(797,333)"/>
</svg>
