<svg width="20" height="20" viewBox="0 0 24 24" fill="#fff" xmlns="http://www.w3.org/2000/svg">
<path d="M9.70699 3.22162L2.63599 10.2926C2.26105 10.6677 2.05042 11.1763 2.05042 11.7066C2.05042 12.2369 2.26105 12.7456 2.63599 13.1206L8.29199 18.7776C8.47773 18.9636 8.69831 19.1111 8.94111 19.2117C9.1839 19.3124 9.44416 19.3642 9.70699 19.3642C9.96982 19.3642 10.2301 19.3124 10.4729 19.2117C10.7157 19.1111 10.9362 18.9636 11.122 18.7776L18.192 11.7066L9.70699 3.22162ZM9.70699 3.22162L8.29299 1.80762" stroke="#fff" stroke-width="1.5" stroke-linecap="round" stroke-linejoin="round"/>
<path d="M20 15C20 15 23 17.993 23 19.887C23 21.542 21.655 22.887 20 22.887C18.345 22.887 17.012 21.542 17 19.887C17.01 17.992 20 15 20 15Z" stroke="#fff" stroke-width="1.5" stroke-miterlimit="1.5" stroke-linecap="round" stroke-linejoin="round"/>
</svg>