<svg width="24" height="24" viewBox="0 0 24 24" fill="none" xmlns="http://www.w3.org/2000/svg">
<g clip-path="url(#clip0_408_1478)">
<path fill-rule="evenodd" clip-rule="evenodd" d="M23.9539 16.92C23.5119 16.06 22.9839 15.247 22.3779 14.494C21.923 13.9648 21.3336 13.5685 20.6719 13.347C20.3627 13.274 20.0386 13.2985 19.7439 13.417C19.2539 13.567 18.6659 13.866 18.1469 14.055C17.8569 14.165 17.6079 14.285 17.4489 14.175C17.2584 14.0298 17.0929 13.8545 16.9589 13.656C16.5609 13.107 16.2309 12.419 15.8819 11.95C15.4795 11.3705 14.9676 10.8755 14.3749 10.493C14.1604 10.3493 13.9154 10.2578 13.6593 10.2257C13.4032 10.1936 13.1431 10.2219 12.8999 10.3081C12.6566 10.3944 12.4369 10.5363 12.2582 10.7226C12.0796 10.9089 11.9469 11.1343 11.8709 11.381C11.7072 11.9252 11.7463 12.5103 11.9809 13.028C12.1762 13.4793 12.4222 13.9016 12.7189 14.295C13.3862 15.0683 14.0082 15.8766 14.5849 16.72C14.7549 16.999 14.9439 17.288 15.0939 17.578C15.1739 17.718 15.2406 17.8643 15.2939 18.017C14.6442 17.736 13.9775 17.4958 13.2979 17.298C12.9928 17.2415 12.678 17.2727 12.3899 17.388C12.199 17.463 12.0327 17.5894 11.9093 17.7532C11.7859 17.917 11.7103 18.1118 11.6909 18.316C11.6609 19.019 11.8459 19.716 12.2199 20.312C12.5828 20.8531 13.0683 21.3009 13.6369 21.619C14.8039 22.277 16.2009 22.317 17.5779 22.946C17.6443 22.9771 17.7203 22.9809 17.7895 22.9566C17.8586 22.9323 17.9155 22.8818 17.9479 22.816C17.9649 22.7826 17.975 22.7461 17.9776 22.7088C17.9802 22.6714 17.9753 22.6339 17.9632 22.5985C17.9511 22.5631 17.932 22.5304 17.907 22.5025C17.8821 22.4746 17.8518 22.452 17.8179 22.436C16.6799 21.868 15.5029 21.729 14.4749 21.27C13.8114 20.9811 13.2513 20.4974 12.8689 19.883C12.6861 19.5593 12.5673 19.2035 12.5189 18.835C12.5189 18.565 12.5189 18.276 12.7089 18.186C12.9455 18.1217 13.1975 18.1466 13.4169 18.256C14.1831 18.6425 14.9992 18.9212 15.8419 19.084C15.9082 19.0852 15.9741 19.0731 16.0358 19.0486C16.0974 19.0241 16.1535 18.9875 16.2009 18.9411C16.2483 18.8947 16.286 18.8392 16.3117 18.7781C16.3374 18.717 16.3508 18.6513 16.3509 18.585C16.3495 18.3308 16.3261 18.0771 16.2809 17.827C16.2089 17.572 16.1118 17.3248 15.9909 17.089C15.8319 16.779 15.6429 16.48 15.4729 16.191C14.8798 15.3067 14.2368 14.457 13.5469 13.646C13.3011 13.3219 13.0934 12.9706 12.9279 12.599C12.8135 12.3492 12.7719 12.0723 12.8079 11.8C12.8234 11.6914 12.8628 11.5876 12.9233 11.4961C12.9839 11.4046 13.064 11.3277 13.1579 11.271C13.4679 11.091 13.7869 11.271 14.0859 11.461C14.4609 11.748 14.7959 12.084 15.0839 12.459C15.4429 12.908 15.7919 13.596 16.2009 14.125C16.4029 14.398 16.6489 14.634 16.9299 14.824C17.0786 14.9292 17.248 15.0014 17.4268 15.0359C17.6056 15.0704 17.7898 15.0663 17.9669 15.024C18.5256 14.8353 19.0679 14.6086 19.5939 14.344C19.8404 14.1858 20.1291 14.1059 20.4219 14.115C20.9619 14.278 21.4489 14.585 21.8289 15.003C22.4219 15.703 22.9399 16.462 23.3759 17.268C23.3965 17.3037 23.4241 17.3349 23.457 17.3598C23.4898 17.3848 23.5273 17.4029 23.5673 17.4131C23.6072 17.4234 23.6488 17.4255 23.6896 17.4195C23.7304 17.4135 23.7696 17.3993 23.8049 17.378C23.8473 17.3604 23.8854 17.3339 23.9165 17.3002C23.9477 17.2666 23.9712 17.2266 23.9854 17.183C23.9997 17.1394 24.0043 17.0932 23.9991 17.0476C23.9938 17.0021 23.9787 16.9582 23.9549 16.919" fill="black"/>
<path fill-rule="evenodd" clip-rule="evenodd" d="M9.98494 12.7384H7.88994C7.32994 12.7384 6.78194 12.7984 5.78394 12.8784C5.06702 12.967 4.34098 12.9502 3.62894 12.8284C3.19109 12.7368 2.78286 12.5378 2.44094 12.2494C1.92304 11.7298 1.52382 11.1042 1.27076 10.4156C1.01769 9.72696 0.916769 8.99171 0.974941 8.26039C0.945164 6.75786 1.33921 5.27733 2.11194 3.98839C2.81927 3.20854 3.76797 2.68876 4.80594 2.51239C6.47758 2.18005 8.18346 2.05244 9.88594 2.13239C11.2319 2.13239 12.6489 2.01239 14.0559 2.02239C14.9559 2.02039 15.8559 2.10439 16.7399 2.27239C17.3382 2.41114 17.8998 2.67642 18.3869 3.05039C18.8479 3.40939 19.1949 3.89439 19.3839 4.44739C19.6104 5.90867 19.6104 7.39611 19.3839 8.85739C19.3048 9.82033 18.9205 10.7329 18.2869 11.4624C18.2303 11.5234 18.1988 11.6036 18.1988 11.6869C18.1988 11.7702 18.2303 11.8504 18.2869 11.9114C18.3468 11.9703 18.4274 12.0034 18.5114 12.0034C18.5954 12.0034 18.6761 11.9703 18.7359 11.9114C19.4845 11.0961 19.959 10.067 20.0929 8.96839C20.3829 7.38739 20.4199 5.77039 20.2029 4.17839C19.9892 3.45072 19.557 2.8063 18.9649 2.33239C18.3772 1.87445 17.6962 1.55087 16.9699 1.38439C16.0183 1.18077 15.049 1.07025 14.0759 1.05439H9.88594C8.09957 0.966543 6.30919 1.1009 4.55594 1.45439C3.27446 1.68995 2.11642 2.36807 1.28394 3.37039C0.389293 4.84047 -0.0546869 6.54059 0.00694056 8.26039C-0.034265 9.12601 0.115076 9.99012 0.444416 10.7917C0.773757 11.5933 1.27507 12.3128 1.91294 12.8994C2.35694 13.2594 2.88594 13.4994 3.44894 13.5974C4.23641 13.7126 5.03647 13.7126 5.82394 13.5974C6.82194 13.4974 7.34094 13.4374 7.88994 13.4074C8.43894 13.3774 8.98694 13.3374 9.98494 13.2884C10.0213 13.2884 10.0572 13.2811 10.0906 13.2669C10.1241 13.2527 10.1543 13.2319 10.1795 13.2058C10.2047 13.1797 10.2244 13.1487 10.2373 13.1148C10.2503 13.0809 10.2563 13.0447 10.2549 13.0084C10.2547 12.937 10.2261 12.8685 10.1755 12.8181C10.1249 12.7677 10.0564 12.7394 9.98494 12.7394" fill="black"/>
<path fill-rule="evenodd" clip-rule="evenodd" d="M5.61493 4.79608C5.47377 4.57078 5.26739 4.39377 5.02322 4.28857C4.77905 4.18336 4.50864 4.15494 4.24793 4.20708C4.01911 4.21939 3.79817 4.29488 3.60964 4.42515C3.42111 4.55543 3.27238 4.73539 3.17993 4.94508C2.95923 5.70777 2.95923 6.51739 3.17993 7.28008L3.34993 7.94908L3.61893 8.75708L3.87893 9.39608C3.85891 9.46248 3.85968 9.53342 3.88113 9.59938C3.90258 9.66534 3.94368 9.72316 3.99893 9.76508C4.25823 9.92728 4.55127 10.0278 4.85552 10.059C5.15976 10.0903 5.46711 10.0513 5.75393 9.94508C6.31696 9.76464 6.81138 9.41641 7.17093 8.94708C7.46093 8.56208 7.61193 8.09108 7.60093 7.60908C7.58536 7.24264 7.44813 6.89183 7.21093 6.61208C7.02003 6.42526 6.79363 6.27857 6.54511 6.18067C6.29658 6.08277 6.03097 6.03565 5.76393 6.04208C5.87067 5.62255 5.81819 5.17829 5.61493 4.79608ZM3.83793 6.71008C3.80299 6.39873 3.80299 6.08444 3.83793 5.77308C3.88793 5.46308 3.98793 5.17308 4.32793 5.15308C4.66793 5.13308 4.72593 5.24308 4.75593 5.41308C4.79493 5.70108 4.72394 5.99308 4.55594 6.23208C4.28741 6.34248 4.04338 6.50493 3.83793 6.71008ZM6.52293 7.28008C6.59176 7.35143 6.64575 7.43571 6.6818 7.52806C6.71784 7.6204 6.73522 7.71898 6.73293 7.81808C6.71732 8.05921 6.6417 8.29261 6.51293 8.49708C6.26667 8.84915 5.91833 9.1172 5.51493 9.26508C5.16493 9.40508 4.77593 9.40508 4.42693 9.26508L4.19693 8.57608L4.07693 8.03808C4.17027 7.99008 4.25693 7.93341 4.33693 7.86808L4.62693 7.65808C4.7936 7.53808 4.9466 7.40175 5.08593 7.24908L5.26593 7.03908H5.32593C5.53012 6.9806 5.74535 6.97187 5.9536 7.01363C6.16185 7.05538 6.35707 7.1464 6.52293 7.27908M11.5119 4.83608C11.5026 4.79575 11.4852 4.7577 11.4609 4.72418C11.4367 4.69065 11.4059 4.66234 11.3705 4.6409C11.335 4.61946 11.2957 4.60534 11.2547 4.59935C11.2138 4.59337 11.172 4.59566 11.1319 4.60608C11.0916 4.61543 11.0536 4.63277 11.02 4.65707C10.9865 4.68136 10.9582 4.71213 10.9368 4.74755C10.9153 4.78297 10.9012 4.82232 10.8952 4.86329C10.8892 4.90426 10.8915 4.94601 10.9019 4.98608C10.9969 5.53208 11.0239 6.08808 10.9819 6.64208C10.9546 7.13555 10.8077 7.61497 10.5539 8.03908C10.494 8.12529 10.4168 8.19814 10.3273 8.25305C10.2378 8.30795 10.1379 8.34371 10.0339 8.35808C9.95328 8.37396 9.86981 8.36745 9.79259 8.33924C9.71538 8.31103 9.64736 8.26221 9.59593 8.19808C9.41852 7.96167 9.2863 7.69452 9.20594 7.41008C9.11146 7.08365 9.04489 6.74978 9.00693 6.41208C8.97689 6.13021 8.97689 5.84595 9.00693 5.56408C9.03827 5.26875 9.08493 4.97608 9.14693 4.68608C9.15851 4.61702 9.14379 4.54614 9.10568 4.4874C9.06757 4.42865 9.00884 4.38633 8.94106 4.36875C8.87328 4.35118 8.80137 4.35964 8.73952 4.39247C8.67768 4.42529 8.63037 4.4801 8.60694 4.54608C8.48494 4.90608 8.38227 5.27208 8.29893 5.64408C8.2436 5.90741 8.2136 6.17341 8.20893 6.44208C8.17982 6.91774 8.22024 7.3951 8.32894 7.85908C8.40594 8.21408 8.54893 8.55208 8.74793 8.85708C8.90895 9.08368 9.1321 9.25883 9.39046 9.36139C9.64882 9.46396 9.93135 9.48955 10.2039 9.43508C10.4525 9.39064 10.6888 9.29383 10.897 9.15107C11.1053 9.00832 11.2808 8.82288 11.4119 8.60708C11.655 8.12042 11.7845 7.58501 11.7909 7.04108C11.8139 6.29594 11.7195 5.55182 11.5109 4.83608M14.3049 7.56008C14.3049 8.17808 14.4349 8.96708 14.4649 9.15608C14.454 9.21388 14.4592 9.27358 14.4802 9.32856C14.5011 9.38353 14.5369 9.43162 14.5835 9.46748C14.6302 9.50334 14.6858 9.52555 14.7443 9.53166C14.8028 9.53777 14.8619 9.52753 14.9149 9.50208C14.9787 9.47215 15.0308 9.42201 15.0632 9.35946C15.0955 9.2969 15.1063 9.22541 15.0939 9.15608L15.3339 7.16008L15.9719 6.35208C16.2119 5.95308 16.4309 5.57408 16.6999 5.20508C16.8039 5.04775 16.9173 4.89775 17.0399 4.75508C17.0927 4.70336 17.1228 4.6328 17.1235 4.55891C17.1243 4.48502 17.0957 4.41386 17.0439 4.36108C16.9922 4.3083 16.9217 4.27823 16.8478 4.27748C16.7739 4.27673 16.7027 4.30536 16.6499 4.35708C16.4199 4.52708 16.2209 4.70608 16.0219 4.88508C15.8219 5.06508 15.4519 5.43508 15.1539 5.72408C15.0439 5.85075 14.9239 5.96708 14.7939 6.07308C14.7239 5.96308 14.6639 5.84308 14.5839 5.73308C14.5034 5.61897 14.417 5.50915 14.3249 5.40408C14.2388 5.29818 14.1456 5.19829 14.0459 5.10508C13.8059 4.87508 13.5469 4.70508 13.3079 4.45608C13.2665 4.40183 13.2067 4.36457 13.1397 4.35133C13.0728 4.33808 13.0033 4.34975 12.9443 4.38414C12.8853 4.41854 12.841 4.47329 12.8195 4.5381C12.7981 4.60291 12.8011 4.67332 12.8279 4.73608C12.9409 5.13808 13.1119 5.52108 13.3379 5.87308C13.4826 6.06375 13.6456 6.23708 13.8269 6.39308C13.9756 6.52975 14.1349 6.65241 14.3049 6.76108C14.2735 7.02649 14.2735 7.29467 14.3049 7.56008Z" fill="black"/>
</g>
<defs>
<clipPath id="clip0_408_1478">
<rect width="24" height="24" fill="white"/>
</clipPath>
</defs>
</svg>
