<svg width="26" height="26" viewBox="0 0 26 26" fill="none" xmlns="http://www.w3.org/2000/svg">
<path d="M10.3447 22.4785C11.3625 22.4785 12.1875 21.6534 12.1875 20.6357C12.1875 19.618 11.3625 18.793 10.3447 18.793C9.32703 18.793 8.502 19.618 8.502 20.6357C8.502 21.6534 9.32703 22.4785 10.3447 22.4785Z" stroke="white" stroke-width="1.5" stroke-linecap="round" stroke-linejoin="round"/>
<path d="M18.3733 22.4785C19.3911 22.4785 20.2161 21.6534 20.2161 20.6357C20.2161 19.618 19.3911 18.793 18.3733 18.793C17.3556 18.793 16.5306 19.618 16.5306 20.6357C16.5306 21.6534 17.3556 22.4785 18.3733 22.4785Z" stroke="white" stroke-width="1.5" stroke-linecap="round" stroke-linejoin="round"/>
<path d="M6.07317 6.01759L8.25067 12.9119C8.58542 13.9714 8.75225 14.5012 9.074 14.8933C9.35567 15.24 9.72292 15.5076 10.1378 15.6733C10.6091 15.8608 11.1638 15.8608 12.2753 15.8608H16.4515C17.563 15.8608 18.1177 15.8608 18.5878 15.6733C19.0038 15.5076 19.37 15.24 19.6528 14.8933C19.9734 14.5012 20.1403 13.9714 20.4761 12.9119L20.9192 11.5079L21.1792 10.6781L21.5378 9.54059C21.6657 9.13488 21.6963 8.70474 21.6271 8.28501C21.5578 7.86527 21.3906 7.46776 21.1391 7.12466C20.8876 6.78157 20.5588 6.50255 20.1794 6.31022C19.7999 6.11788 19.3805 6.01763 18.9551 6.01759H6.07317ZM6.07317 6.01759L6.06125 5.97751C6.01551 5.82428 5.96493 5.67254 5.90959 5.52251C5.69026 4.96734 5.31834 4.48556 4.83679 4.13284C4.35524 3.78011 3.78371 3.57083 3.18825 3.52917C3.07667 3.52051 2.95425 3.52051 2.70834 3.52051" stroke="white" stroke-width="1.5" stroke-linecap="round" stroke-linejoin="round"/>
</svg>
