<svg width="16" height="16" viewBox="0 0 16 16" fill="none" xmlns="http://www.w3.org/2000/svg">
<path d="M8.00005 1.5C8.00005 1.36739 7.94737 1.24021 7.8536 1.14645C7.75983 1.05268 7.63265 1 7.50005 1H4.20005C3.08005 1 2.52005 1 2.09005 1.218C1.71374 1.40974 1.40779 1.71569 1.21605 2.092C0.998047 2.52 0.998047 3.08 0.998047 4.202V7.502C0.998047 7.63461 1.05073 7.76179 1.14449 7.85555C1.23826 7.94932 1.36544 8.002 1.49805 8.002C1.63066 8.002 1.75783 7.94932 1.8516 7.85555C1.94537 7.76179 1.99805 7.63461 1.99805 7.502V4.202C1.99805 3.625 1.99805 3.253 2.02205 2.972C2.04405 2.7 2.08205 2.6 2.10705 2.55C2.20305 2.362 2.35605 2.209 2.54405 2.113C2.59405 2.088 2.69405 2.05 2.96605 2.028C3.24905 2.005 3.62205 2.004 4.19605 2.004H7.49605C7.62865 2.004 7.75583 1.95132 7.8496 1.85755C7.94337 1.76379 7.99605 1.63661 7.99605 1.504L8.00005 1.5ZM15 11.8V8.5C15 8.36739 14.9474 8.24021 14.8536 8.14645C14.7598 8.05268 14.6327 8 14.5 8C14.3674 8 14.2403 8.05268 14.1465 8.14645C14.0527 8.24021 14 8.36739 14 8.5V11.8C14 12.377 14 12.749 13.976 13.03C13.954 13.302 13.916 13.402 13.891 13.452C13.7952 13.6402 13.6422 13.7931 13.454 13.889C13.404 13.914 13.304 13.952 13.032 13.974C12.749 13.997 12.376 13.998 11.802 13.998H8.50205C8.36944 13.998 8.24226 14.0507 8.14849 14.1444C8.05473 14.2382 8.00205 14.3654 8.00205 14.498C8.00205 14.6306 8.05473 14.7578 8.14849 14.8516C8.24226 14.9453 8.36944 14.998 8.50205 14.998H11.802C12.922 14.998 13.482 14.998 13.912 14.78C14.288 14.588 14.594 14.282 14.786 13.906C15.004 13.478 15.004 12.918 15.004 11.796L15 11.8ZM6.85005 9.15C6.94315 9.24281 6.99596 9.36855 6.99705 9.5V12.503C6.99705 12.6356 6.94437 12.7628 6.8506 12.8566C6.75683 12.9503 6.62966 13.003 6.49705 13.003C6.36444 13.003 6.23726 12.9503 6.14349 12.8566C6.04972 12.7628 5.99705 12.6356 5.99705 12.503V10.713L1.84705 14.863C1.75275 14.9541 1.62644 15.0045 1.49535 15.0033C1.36425 15.0022 1.23884 14.9496 1.14614 14.8569C1.05343 14.7642 1.00085 14.6388 0.99971 14.5077C0.998571 14.3766 1.04897 14.2503 1.14005 14.156L5.29005 10.006H3.50005C3.36744 10.006 3.24026 9.95332 3.14649 9.85955C3.05273 9.76579 3.00005 9.63861 3.00005 9.506C3.00005 9.37339 3.05273 9.24621 3.14649 9.15245C3.24026 9.05868 3.36744 9.006 3.50005 9.006H6.50005C6.56559 9.00603 6.63049 9.01894 6.69105 9.044C6.75105 9.068 6.80505 9.10467 6.85305 9.154L6.85005 9.15ZM10.7 6L14.85 1.85C14.9411 1.7557 14.9915 1.6294 14.9904 1.4983C14.9892 1.3672 14.9367 1.24179 14.844 1.14909C14.7513 1.05639 14.6258 1.0038 14.4947 1.00266C14.3636 1.00152 14.2373 1.05192 14.143 1.143L9.99305 5.293V3.503C9.99305 3.37039 9.94037 3.24321 9.8466 3.14945C9.75283 3.05568 9.62566 3.003 9.49305 3.003C9.36044 3.003 9.23326 3.05568 9.13949 3.14945C9.04572 3.24321 8.99305 3.37039 8.99305 3.503V6.506C8.99346 6.6046 9.02301 6.70088 9.07799 6.78272C9.13297 6.86457 9.21092 6.92834 9.30205 6.966C9.36237 6.99059 9.42691 7.00316 9.49205 7.003H12.492C12.6247 7.003 12.7518 6.95032 12.8456 6.85655C12.9394 6.76279 12.992 6.63561 12.992 6.503C12.992 6.37039 12.9394 6.24321 12.8456 6.14945C12.7518 6.05568 12.6247 6.003 12.492 6.003H10.702L10.7 6Z" fill="black"/>
</svg>
