<svg width="45" height="45" viewBox="0 0 26 26" fill="none" xmlns="http://www.w3.org/2000/svg">
    <g clip-path="url(#clip0_470_232)">
    <path d="M13 -0.000465346C12.7337 -0.00648825 12.4688 0.0407603 12.221 0.138506C11.9732 0.236252 11.7474 0.382525 11.5568 0.568738C11.3663 0.754951 11.2149 0.97735 11.1115 1.22288C11.0082 1.46841 10.9549 1.73212 10.9548 1.99852C10.9547 2.26493 11.0079 2.52867 11.1112 2.77425C11.2144 3.01983 11.3657 3.2423 11.5561 3.42861C11.7466 3.61492 11.9723 3.7613 12.2201 3.85917C12.4678 3.95704 12.7327 4.00442 12.999 3.99853C13.5216 3.98698 14.0188 3.77131 14.3844 3.3977C14.7499 3.02408 14.9547 2.52221 14.9548 1.99952C14.9549 1.47683 14.7504 0.974864 14.3851 0.601066C14.0197 0.227269 13.5226 0.0113515 13 -0.000465346ZM18.156 1.24953C17.863 1.26553 17.522 1.40853 17.281 1.81253C16.593 2.96553 17.673 3.66453 18 3.84253C21.244 5.61953 23.469 9.04753 23.469 12.9995C23.469 18.7695 18.77 23.4685 13 23.4685C7.23002 23.4685 2.53102 18.7695 2.53102 12.9995C2.53102 11.6735 2.79602 10.4155 3.25002 9.24953C3.30902 9.09853 3.86602 8.07653 2.75002 7.37453C1.98602 6.89453 1.24402 7.43853 1.09402 7.78053C0.369845 9.42502 -0.00278184 11.2027 1.56353e-05 12.9995C1.56353e-05 20.1795 5.82002 25.9995 13 25.9995C20.18 25.9995 26 20.1795 26 12.9995C26 7.88653 23.044 3.46153 18.75 1.34353C18.705 1.32053 18.45 1.23353 18.156 1.24953ZM3.37502 3.34353C3.06102 3.65753 11.102 13.8195 11.344 14.1245C11.352 14.1365 11.366 14.1435 11.375 14.1555L11.469 14.2805C11.835 14.7205 12.383 14.9985 13 14.9995C13.5302 14.9987 14.0385 14.7878 14.4134 14.4129C14.7883 14.038 14.9992 13.5297 15 12.9995C15.0007 12.7071 14.9365 12.4181 14.8122 12.1534C14.6879 11.8887 14.5065 11.6548 14.281 11.4685C14.281 11.4685 3.69402 3.02453 3.37502 3.34353Z" fill="#000"/>
    </g>
    <defs>
    <clipPath id="clip0_470_232">
    <rect width="26" height="26" fill="white"/>
    </clipPath>
    </defs>
</svg>