<svg width="16" height="16" viewBox="0 0 16 16" fill="none" xmlns="http://www.w3.org/2000/svg">
<g clip-path="url(#clip0_515_220)">
<path d="M12.9999 3.49993V6.49993C12.9999 6.63254 12.9473 6.75971 12.8535 6.85348C12.7597 6.94725 12.6326 6.99993 12.4999 6.99993C12.3673 6.99993 12.2402 6.94725 12.1464 6.85348C12.0526 6.75971 11.9999 6.63254 11.9999 6.49993V4.70993L9.84995 6.85993C9.75565 6.95101 9.62935 7.00141 9.49825 7.00027C9.36715 6.99913 9.24174 6.94654 9.14904 6.85384C9.05634 6.76114 9.00375 6.63573 9.00261 6.50463C9.00147 6.37353 9.05187 6.24723 9.14295 6.15293L11.2929 4.00293H9.50295C9.37034 4.00293 9.24316 3.95025 9.14939 3.85648C9.05563 3.76271 9.00295 3.63554 9.00295 3.50293C9.00295 3.37032 9.05563 3.24314 9.14939 3.14938C9.24316 3.05561 9.37034 3.00293 9.50295 3.00293H12.5029C12.6343 3.00295 12.7604 3.05468 12.8539 3.14693L12.8579 3.15093C12.9495 3.24373 13.0011 3.36859 13.0019 3.49893V3.50293L12.9999 3.49993ZM3.49995 8.99993C3.63256 8.99993 3.75973 9.05261 3.8535 9.14638C3.94727 9.24014 3.99995 9.36732 3.99995 9.49993V11.2899L6.14995 9.13993C6.24425 9.04885 6.37055 8.99845 6.50165 8.99959C6.63275 9.00073 6.75815 9.05332 6.85086 9.14602C6.94356 9.23872 6.99615 9.36413 6.99728 9.49523C6.99842 9.62633 6.94803 9.75263 6.85695 9.84693L4.70695 11.9969H6.49695C6.62956 11.9969 6.75673 12.0496 6.8505 12.1434C6.94427 12.2371 6.99695 12.3643 6.99695 12.4969C6.99695 12.6295 6.94427 12.7567 6.8505 12.8505C6.75673 12.9443 6.62956 12.9969 6.49695 12.9969H3.49395C3.36203 12.9961 3.23578 12.9432 3.14268 12.8498C3.04959 12.7563 2.99721 12.6298 2.99695 12.4979V9.49793C2.99695 9.36532 3.04963 9.23814 3.14339 9.14438C3.23716 9.05061 3.36434 8.99793 3.49695 8.99793L3.49995 8.99993Z" fill="black"/>
<path fill-rule="evenodd" clip-rule="evenodd" d="M0 4.79993C0 3.11993 0 2.27993 0.327 1.63993C0.615638 1.0768 1.07387 0.618568 1.637 0.32993C2.279 0.00292972 3.117 0.00292969 4.797 0.00292969H11.197C12.877 0.00292969 13.717 0.00292972 14.357 0.32993C14.9201 0.618568 15.3784 1.0768 15.667 1.63993C15.994 2.28193 15.994 3.11993 15.994 4.79993V11.1999C15.994 12.8799 15.994 13.7199 15.667 14.3599C15.3795 14.9239 14.9209 15.3824 14.357 15.6699C13.715 15.9969 12.877 15.9969 11.197 15.9969H4.797C3.117 15.9969 2.277 15.9969 1.637 15.6699C1.07306 15.3824 0.614525 14.9239 0.327 14.3599C0 13.7179 0 12.8799 0 11.1999V4.79993ZM4.8 0.99993H11.2C12.057 0.99993 12.64 0.99993 13.09 1.03793C13.528 1.07293 13.753 1.13793 13.909 1.21793C14.285 1.40993 14.591 1.71593 14.783 2.09193C14.863 2.24793 14.928 2.47193 14.963 2.91093C15 3.36093 15.001 3.94093 15.001 4.80093V11.2009C15.001 12.0579 15 12.6409 14.963 13.0909C14.927 13.5289 14.862 13.7539 14.783 13.9099C14.5913 14.2862 14.2853 14.5922 13.909 14.7839C13.753 14.8639 13.528 14.9289 13.09 14.9639C12.64 14.9999 12.06 15.0009 11.2 15.0009H4.8C3.943 15.0009 3.36 15.0009 2.91 14.9639C2.472 14.9279 2.247 14.8629 2.091 14.7839C1.71469 14.5922 1.40874 14.2862 1.217 13.9099C1.137 13.7539 1.072 13.5289 1.037 13.0899C1 12.6399 0.999 12.0599 0.999 11.1999V4.79993C0.999 3.94393 1 3.35993 1.037 2.90993C1.073 2.47293 1.138 2.24793 1.217 2.09193C1.409 1.71593 1.715 1.40993 2.091 1.21793C2.247 1.13793 2.472 1.07293 2.91 1.03793C3.36 0.99993 3.94 0.99993 4.8 0.99993Z" fill="black"/>
</g>
<defs>
<clipPath id="clip0_515_220">
<rect width="16" height="16" fill="white"/>
</clipPath>
</defs>
</svg>
