<svg width="24" height="24" viewBox="0 0 24 24" fill="none" xmlns="http://www.w3.org/2000/svg">
<path d="M19.75 10.0003C19.75 9.8014 19.671 9.61064 19.5304 9.46999C19.3897 9.32933 19.1989 9.25032 19 9.25032C18.8011 9.25032 18.6104 9.32933 18.4697 9.46999C18.329 9.61064 18.25 9.8014 18.25 10.0003H19.75ZM5.75003 10.0003C5.75003 9.8014 5.67101 9.61064 5.53036 9.46999C5.38971 9.32933 5.19894 9.25032 5.00003 9.25032C4.80112 9.25032 4.61035 9.32933 4.4697 9.46999C4.32905 9.61064 4.25003 9.8014 4.25003 10.0003H5.75003ZM20.47 12.5303C20.5387 12.604 20.6215 12.6631 20.7135 12.7041C20.8055 12.7451 20.9048 12.7671 21.0055 12.7689C21.1062 12.7707 21.2062 12.7522 21.2996 12.7144C21.393 12.6767 21.4779 12.6206 21.5491 12.5494C21.6203 12.4781 21.6764 12.3933 21.7142 12.2999C21.7519 12.2065 21.7704 12.1065 21.7686 12.0058C21.7668 11.9051 21.7448 11.8058 21.7038 11.7138C21.6628 11.6218 21.6037 11.539 21.53 11.4703L20.47 12.5303ZM12 3.00032L12.53 2.47032C12.3894 2.32987 12.1988 2.25098 12 2.25098C11.8013 2.25098 11.6107 2.32987 11.47 2.47032L12 3.00032ZM2.47003 11.4703C2.39634 11.539 2.33724 11.6218 2.29625 11.7138C2.25526 11.8058 2.23322 11.9051 2.23144 12.0058C2.22966 12.1065 2.24819 12.2065 2.28591 12.2999C2.32363 12.3933 2.37977 12.4781 2.45099 12.5494C2.52221 12.6206 2.60705 12.6767 2.70043 12.7144C2.79382 12.7522 2.89385 12.7707 2.99455 12.7689C3.09526 12.7671 3.19457 12.7451 3.28657 12.7041C3.37857 12.6631 3.46137 12.604 3.53003 12.5303L2.47003 11.4703ZM7.00003 21.7503H17V20.2503H7.00003V21.7503ZM19.75 19.0003V10.0003H18.25V19.0003H19.75ZM5.75003 19.0003V10.0003H4.25003V19.0003H5.75003ZM21.53 11.4703L12.53 2.47032L11.47 3.53032L20.47 12.5303L21.53 11.4703ZM11.47 2.47032L2.47003 11.4703L3.53003 12.5303L12.53 3.53032L11.47 2.47032ZM17 21.7503C17.7294 21.7503 18.4289 21.4606 18.9446 20.9449C19.4603 20.4291 19.75 19.7297 19.75 19.0003H18.25C18.25 19.6903 17.69 20.2503 17 20.2503V21.7503ZM7.00003 20.2503C6.31003 20.2503 5.75003 19.6903 5.75003 19.0003H4.25003C4.25003 19.7297 4.53976 20.4291 5.05549 20.9449C5.57121 21.4606 6.27069 21.7503 7.00003 21.7503V20.2503Z" fill="black"/>
</svg>
