<svg width="50" height="50" viewBox="0 0 50 50" fill="none" xmlns="http://www.w3.org/2000/svg">
<path d="M39.0625 31.2495C39.0625 39.8794 33.6299 45.312 25 45.312C16.3701 45.312 10.9375 39.8794 10.9375 31.2495C10.9375 21.9888 21.0186 9.48682 24.1104 5.87061C24.2204 5.74213 24.3569 5.63899 24.5105 5.56827C24.6642 5.49755 24.8313 5.46094 25.0005 5.46094C25.1696 5.46094 25.3368 5.49755 25.4904 5.56827C25.6441 5.63899 25.7806 5.74213 25.8906 5.87061C28.9814 9.48682 39.0625 21.9888 39.0625 31.2495Z" stroke="black" stroke-width="2.5" stroke-miterlimit="10"/>
<path d="M33.5938 32.0312C33.5938 33.8961 32.853 35.6845 31.5343 37.0031C30.2157 38.3217 28.4273 39.0625 26.5625 39.0625" stroke="black" stroke-width="2.5" stroke-linecap="round" stroke-linejoin="round"/>
</svg>