<svg width="16" height="16" viewBox="0 0 16 16" fill="none" xmlns="http://www.w3.org/2000/svg">
<path d="M14.4999 8.00004C14.4999 8.13265 14.4472 8.25983 14.3534 8.35359C14.2597 8.44736 14.1325 8.50004 13.9999 8.50004H3.20689L7.35339 12.6465C7.44447 12.7408 7.49487 12.8671 7.49373 12.9982C7.49259 13.1293 7.44001 13.2547 7.3473 13.3475C7.2546 13.4402 7.12919 13.4927 6.99809 13.4939C6.867 13.495 6.74069 13.4446 6.64639 13.3535L1.64639 8.35354C1.55266 8.25978 1.5 8.13262 1.5 8.00004C1.5 7.86746 1.55266 7.7403 1.64639 7.64654L6.64639 2.64654C6.69252 2.59879 6.74769 2.56069 6.80869 2.53449C6.86969 2.50829 6.9353 2.49449 7.00169 2.49392C7.06808 2.49334 7.13392 2.50599 7.19537 2.53113C7.25682 2.55627 7.31264 2.5934 7.35959 2.64034C7.40654 2.68729 7.44366 2.74312 7.4688 2.80456C7.49394 2.86601 7.5066 2.93185 7.50602 2.99824C7.50544 3.06463 7.49165 3.13024 7.46544 3.19124C7.43924 3.25224 7.40115 3.30742 7.35339 3.35354L3.20689 7.50004H13.9999C14.1325 7.50004 14.2597 7.55272 14.3534 7.64649C14.4472 7.74026 14.4999 7.86743 14.4999 8.00004Z" fill="black"/>
</svg>
