<svg width="45" height="45" viewBox="0 0 24 24" fill="none" xmlns="http://www.w3.org/2000/svg">
<path fill-rule="evenodd" clip-rule="evenodd" d="M9.75001 1.23C10.476 1.08 11.229 1 12 1C14.697 1 17.168 1.97 19.08 3.582L10.187 8.717C10.0354 8.80174 9.88938 8.89628 9.75001 9V1.23ZM13.474 8.55L20.2 4.669C22.0062 6.68331 23.0035 9.2945 23 12C23 12.656 22.943 13.3 22.832 13.924L13.926 8.782C13.7804 8.69551 13.6294 8.61735 13.474 8.55ZM15.724 11.552C15.7413 11.7 15.75 11.8497 15.75 12.001V22.345C17.3166 21.7751 18.7337 20.8575 19.8946 19.6612C21.0556 18.4649 21.9303 17.021 22.453 15.438L15.724 11.552ZM1.16801 10.077C1.05601 10.7023 1.00001 11.3433 1.00001 12C0.996268 14.7058 1.9936 17.3174 3.80001 19.332L10.526 15.449C10.367 15.3801 10.2127 15.3009 10.064 15.212L1.16801 10.077ZM1.54801 8.564L8.27701 12.449C8.2596 12.3 8.25058 12.1501 8.25001 12V1.656C6.6836 2.22603 5.26675 3.14368 4.10596 4.33998C2.94516 5.53629 2.0706 6.98013 1.54801 8.563M12 23C9.30301 23 6.83301 22.03 4.92001 20.418L13.812 15.284C13.9653 15.1987 14.1113 15.104 14.25 15V22.77C13.524 22.92 12.771 23 12 23Z" fill="#000"/>
</svg>