<svg width="24" height="24" viewBox="0 0 24 24" fill="none" xmlns="http://www.w3.org/2000/svg">
<path d="M11 11L6 6" stroke="black" stroke-width="1.5"/>
<path d="M4.99994 7.50021L7.49994 5.00021L4.49994 3.50021L3.49994 4.50021L4.99994 7.50021ZM19.9749 8.97521C20.455 8.49552 20.7853 7.8866 20.9256 7.22258C21.0659 6.55856 21.01 5.86808 20.7649 5.23521L19.3429 6.65721H17.3429V4.65721L18.7649 3.23521C18.132 2.98955 17.4413 2.93327 16.777 3.07322C16.1127 3.21318 15.5034 3.54333 15.0234 4.02345C14.5433 4.50357 14.2133 5.11293 14.0735 5.7773C13.9337 6.44166 13.9901 7.13235 14.2359 7.76521L7.76594 14.2362C7.13308 13.9904 6.44239 13.934 5.77803 14.0738C5.11366 14.2136 4.5043 14.5436 4.02418 15.0236C3.54406 15.5036 3.21391 16.1129 3.07396 16.7773C2.934 17.4416 2.99028 18.1323 3.23594 18.7652L4.65694 17.3432H6.65694V19.3432L5.23494 20.7652C5.86769 21.0109 6.55823 21.0672 7.22244 20.9274C7.88666 20.7877 8.4959 20.4577 8.97597 19.9779C9.45604 19.498 9.78621 18.8889 9.9263 18.2248C10.0664 17.5606 10.0103 16.8701 9.76494 16.2372L16.2369 9.76521C16.8695 10.0099 17.5596 10.0655 18.2232 9.92523C18.8869 9.78498 19.4954 9.45493 19.9749 8.97521Z" stroke="black" stroke-width="1.5" stroke-linejoin="round"/>
<path d="M11.797 14.4999L17.401 20.1039C17.5264 20.2295 17.6753 20.3292 17.8393 20.3972C18.0032 20.4652 18.179 20.5002 18.3565 20.5002C18.534 20.5002 18.7098 20.4652 18.8737 20.3972C19.0377 20.3292 19.1866 20.2295 19.312 20.1039L20.104 19.3119C20.2296 19.1865 20.3293 19.0375 20.3973 18.8736C20.4653 18.7096 20.5003 18.5339 20.5003 18.3564C20.5003 18.1789 20.4653 18.0031 20.3973 17.8392C20.3293 17.6752 20.2296 17.5263 20.104 17.4009L14.5 11.7969" stroke="black" stroke-width="1.5" stroke-linejoin="round"/>
</svg>
