<svg width="26" height="26" viewBox="0 0 26 26" fill="none" xmlns="http://www.w3.org/2000/svg">
<path d="M22.75 22.7502L18.0451 18.0453M18.0451 18.0453C18.8499 17.2405 19.4883 16.2851 19.9238 15.2336C20.3594 14.182 20.5836 13.055 20.5836 11.9169C20.5836 10.7787 20.3594 9.65173 19.9238 8.60021C19.4883 7.5487 18.8499 6.59327 18.0451 5.78847C17.2403 4.98368 16.2849 4.34528 15.2333 3.90973C14.1818 3.47418 13.0548 3.25 11.9167 3.25C10.7785 3.25 9.65151 3.47418 8.59999 3.90973C7.54848 4.34528 6.59305 4.98368 5.78825 5.78847C4.16289 7.41383 3.24978 9.61829 3.24978 11.9169C3.24978 14.2155 4.16289 16.4199 5.78825 18.0453C7.41361 19.6707 9.61807 20.5838 11.9167 20.5838C14.2153 20.5838 16.4197 19.6707 18.0451 18.0453Z" stroke="white" stroke-width="1.5" stroke-linecap="round" stroke-linejoin="round"/>
</svg>