<svg width="24" height="24" viewBox="0 0 24 24" fill="none" xmlns="http://www.w3.org/2000/svg">
<path d="M17.4999 8.75L15.0449 19.553C14.9854 19.8162 14.9858 20.0895 15.0462 20.3525C15.1066 20.6156 15.2253 20.8617 15.3936 21.0727C15.5619 21.2836 15.7755 21.454 16.0186 21.5713C16.2617 21.6885 16.5281 21.7496 16.7979 21.75H17.9999" stroke="black" stroke-width="1.5" stroke-linecap="round" stroke-linejoin="round"/>
<path d="M19.22 21.75H4.77998C4.50933 21.7501 4.24222 21.6884 3.99898 21.5697C3.75573 21.4511 3.54275 21.2785 3.37624 21.0651C3.20973 20.8517 3.09407 20.6032 3.03805 20.3384C2.98204 20.0736 2.98714 19.7995 3.05298 19.537L5.24298 10.78C5.60598 9.325 5.78798 8.597 6.33098 8.174C6.87298 7.75 7.62298 7.75 9.12298 7.75H14.877C16.377 7.75 17.127 7.75 17.669 8.174C18.212 8.597 18.394 9.324 18.757 10.78L20.947 19.537C21.0124 19.7996 21.0172 20.0736 20.961 20.3383C20.9048 20.603 20.789 20.8514 20.6224 21.0647C20.4559 21.278 20.2429 21.4506 19.9998 21.5693C19.7566 21.688 19.4906 21.7498 19.22 21.75Z" stroke="black" stroke-width="1.5" stroke-linecap="round" stroke-linejoin="round"/>
<path d="M15 7.75V5.75C15 4.95435 14.6839 4.19129 14.1213 3.62868C13.5587 3.06607 12.7956 2.75 12 2.75C11.2044 2.75 10.4413 3.06607 9.87868 3.62868C9.31607 4.19129 9 4.95435 9 5.75V7.75M10 10.75H12.5" stroke="black" stroke-width="1.5" stroke-linecap="round" stroke-linejoin="round"/>
</svg>
