<svg width="24" height="24" viewBox="0 0 24 24" fill="none" xmlns="http://www.w3.org/2000/svg">
<path fill-rule="evenodd" clip-rule="evenodd" d="M12 21C16.9705 21 21 16.9705 21 12C21 7.0295 16.9705 3 12 3C7.0295 3 3 7.0295 3 12C3 16.9705 7.0295 21 12 21ZM12 22C17.523 22 22 17.523 22 12C22 6.477 17.523 2 12 2C6.477 2 2 6.477 2 12C2 17.523 6.477 22 12 22Z" fill="black"/>
<path fill-rule="evenodd" clip-rule="evenodd" d="M17.3351 8.12999C17.4334 8.21885 17.4925 8.34314 17.4992 8.47553C17.506 8.60792 17.4599 8.73757 17.3711 8.83599L10.6931 16.2165L6.65507 12.362C6.5644 12.2693 6.51327 12.1451 6.51246 12.0154C6.51165 11.8858 6.56123 11.7609 6.65074 11.6671C6.74025 11.5733 6.86269 11.518 6.99222 11.5127C7.12176 11.5075 7.24828 11.5527 7.34507 11.639L10.6401 14.784L16.6296 8.16549C16.6737 8.11678 16.7269 8.07723 16.7863 8.04911C16.8456 8.02099 16.91 8.00484 16.9756 8.00159C17.0412 7.99834 17.1068 8.00805 17.1686 8.03017C17.2305 8.05228 17.2874 8.08637 17.3361 8.13049" fill="black"/>
</svg>
